<?xml version="1.0" encoding="utf-8"?>
<!-- Generator: Adobe Illustrator 23.0.3, SVG Export Plug-In . SVG Version: 6.00 Build 0)  -->
<svg version="1.1" id="Layer_1" xmlns="http://www.w3.org/2000/svg" xmlns:xlink="http://www.w3.org/1999/xlink" x="0px" y="0px"
	 viewBox="0 0 400 400" style="enable-background:new 0 0 400 400;" xml:space="preserve">
<style type="text/css">
	.st0{fill:#FFFFFF;}
	.st1{fill:none;stroke:#FFFFFF;stroke-width:0.35;stroke-miterlimit:10;}
</style>
<g>
	<path class="st0" d="M235.6,25.1c0,0,15-5.4,50.9,6.4c0,0-15.3-18.9-62.3-18.3c0,0-0.5-2.9,8.2-5.4c0,0-10.5-3.1-23.8,2.3
		c0,0-1.8-7.9-7.6-9l0,0c-5.7,1.1-7.7,9-7.7,9c-13.2-5.4-23.8-2.3-23.8-2.3c8.7,2.5,8.2,5.4,8.2,5.4c-47-0.6-62.3,18.3-62.3,18.3
		c35.9-11.9,50.9-6.4,50.9-6.4c-43.3,9.4-49.8,36.1-49.8,36.1C140.4,40.5,166.4,36,166.4,36c-30.9,25.9-22.3,40.2-22.3,40.2
		c18-26.7,34-31.1,34-31.1c-9.3,17.1-2.9,39.6-1.9,36.3c8.2-30.6,21.9-47.1,22.4-47.8c0.7,0.6,19.1,17.3,27.3,47.8
		c1,3.4,7.4-19.2-1.8-36.3c0,0,16,4.4,34,31.1c0,0,8.6-14.4-22.5-40.2c0,0,26.1,4.5,49.8,25.2C285.5,61.1,279,34.5,235.6,25.1z"/>
	<path class="st0" d="M139.3,130.8c3.1,3.4,7.6,9.6,10.1,11.2c2.5,1.6,6.6,2.5,9.6,3.2c0.4,0.1,0.7,0.2,1,0.4c1.4-2.2,3-4.4,4.7-6.4
		c0.2-0.4,0.5-0.7,0.8-1c-0.1,0.1-0.4,0.4-0.8,1c-1.1,1.8-1.6,4.9-1.9,7.6c-0.3,2.7-0.3,4.9-0.3,4.9c0,0.6,0.1,1.3,0.1,2.1
		c0.1,5.6,10,20.6,12.5,24.5c1.9,3,3.1,6.4,3.5,9.9c0.3,2.2,1.1,5.2,1,6.6c1.1,1.5,2.6,3.2,3.7,3.7c1.5,0.7,4,1,6.3,3
		c0.3,0.3,0.7,0.6,0.9,1c0.8,0.9,1.4,2,1.9,3.1c-0.1-0.1-0.8-1-1.7-1.9c-0.3-0.3-0.7-0.7-1-1c-0.4-0.4-1-0.7-1.5-0.9
		c-1.5-0.3-3.5,0.2-4.6-0.7c-0.8-0.6-3.4-2.9-5-4.4c-0.5,0.7-0.9,1.5-1.2,2.3c-0.8,2,1,3.9,1,3.9s19.5,9.7,17.8,33.4
		c2-1.7,3.9-3.5,5.7-5.4c2.1-2,4-4.2,6-6.3c1-1.1,1.9-2.2,2.8-3.4s1.8-2.3,2.6-3.5c0.9-1.2,1.7-2.4,2.4-3.6c0.1-0.2,0.2-0.3,0.3-0.5
		l0,0c2.8-4,4.7-8.6,5.9-13.3l0,0c0.2-0.8,0.3-1.4,0.5-2l0,0c0-0.2,0.1-0.3,0.1-0.5c0-0.1,0-0.1,0-0.1s0-0.2,0.1-0.3
		c0.1-0.1,0-0.1,0-0.1V197c0,0,0,0,0-0.1l0.1-0.3c-0.8,1.3-1.5,2.7-2.1,4.2c0-2.2,0.6-4.4,1.8-6.3c0.1-1.2,0.9-3.4,0.8-6.5
		c-0.2-3.4-0.7-10.3-0.7-10.3l0.1-0.1c-0.3-3-0.9-7.5-1.9-9.6l-0.3-0.6c0.1,0.2,0.3,0.4,0.3,0.6c0.7,1.3,2.4,4.1,4.1,7.3
		c1.7-1.9,4-4.5,5.5-6.3c2.6-3.3,5.6-12,5.6-12l0,0c0.6-1.8,0.8-3.6,0.7-5.5c0.8,1.8,1.3,3.7,1.7,5.7c2.9,0.3,7.6,0.6,10.2,0.2
		c3.9-0.5,9.3-5.4,12.9-7.9c3.6-2.5,4.3-4.6,4.5-7.1c0.2-2.5-1-12.4-3.3-17.2c-2.3-4.7-11.3-12.9-11.6-15c-0.4-2.1-2.6-4.1-4-5.9
		c-0.9-1.1-2.4-1.6-3.8-1.3c-0.8-2.7-2.9-0.5-2.9-0.5c-1.3-2-2.4,0.3-2.4,0.3c-1.7-0.8-2.4,1.8-3.1,3.2s-0.8,3.2-0.1,4.2
		c0.7,1-0.4,0.7-0.7,1.8c-0.4,1.1,2,2.5,2.7,2.9s2.6-0.7,2.6-0.7c0.6,0.8,2.4-0.6,2.4-0.6c0.5,0.3,1.2,0.3,1.7,0
		c0.6,0.8,1.1,0.5,1.1,0.5c0.4,1.8,0.9,3.6,1.6,5.3c1.2,3.2,1.7,6.6,1.3,9.9c-0.1,1.1-0.3,2-0.5,2.7c3.3,2.8,7.4,5.8,7.4,5.8
		c-3.2,0.5-8.1-3.5-8.1-3.5c-5.3-3.1-10.2,0.8-10.2,0.8s-3.2,1.7-3.2,3.6c0-1.7,0.5-3.3,1.5-4.6l-2.2-1.4c-4-2.4-5.2-2.5-9.2-2
		c-4,0.5-6.4,6.6-10.5,5.3c0,0-4.5-0.5-6.8,1.2c-0.5,0.5-0.8,0.8-0.9,0.9c0.2-0.4,0.5-0.7,0.9-0.9c1.3-1.3,2.8-2.5,4.4-3.5
		c-0.8-2.2-0.2-5.3-0.5-7.6c-0.5-3.4,4-5,3.4-14.6c-0.6-9.5-5.5-10.6-9.3-12.1s-8.6,1.2-11.4,3.4c-2.9,2.2-2.2,2.9-2,3.7
		c0.2,1.1-0.2,2.1-1.1,2.8c-0.9,0.6-1.5,1.5-1.7,2.5c-0.5,2.1-0.7,4.3-0.4,6.5c0.1,1.6,0,3.1-0.3,4.7c-0.3,1.3,3.2,4.3,4.4,4.8
		c0.2,0.1,0.4,0.3,0.4,0.5l0,0c2.1,0,4.1-0.2,6.2-0.7c2.4-0.7,8.2-7,8.2-7s-2.2,5.2-5.8,7.5c-2.8,1.7-6.7,1.8-8.5,1.8
		c-0.1,0.4-0.1,0.7-0.2,1c7.5,2.7,8.1,7.6,8.1,7.6c-1.5-2.6-8.3-6.6-8.3-6.6c-2.8,1.3-8-4.9-12.2-7.8c-3.1-2.2-8.1-1.1-10.6-0.4
		c0.2,1.7,0.5,3.3,0.8,5c-1.7-1.3-2.3-4.5-2.3-4.5s-1.1-1.3-3.4-4.6c-1.8-2.6-7.1-2.9-9.2-2.9h-0.9l-8.6,0.7c2.9-1.4,6-2.4,9.1-2.8
		c0.4-3,0.7-8.2,1.1-10.2c0.5-2.7,3.6-9.1,3.6-9.1l1.3,0.8c1.3,0.8,2.9-0.3,2.9-0.3c1.2,1,4,0.3,4,0.3c1.6,0.8,2.9-1,4.9-2.6
		s-0.2-5.6-0.1-8.2c0.1-2.6-3-1.6-3-1.6c-0.5-2.6-4.3-1.3-4.3-1.3c-0.8-1.2-3.2,0.8-5,1c-1.8,0.1-9,7.6-10.9,9.7
		c-3,3.4-6.3,6.6-9.9,9.4c-3.7,2.8-4.3,9.8-4.5,11c-0.2,1.2-1.8,3.5-2.5,6.1C130.8,122.3,136.2,127.5,139.3,130.8z M214.2,168.6
		c-0.3-0.1-7.3-1.6-9.3,0.8c-1.3,1.6-2.2,3.4-2.5,5.4c-0.7-1.9-1.8-3.6-3.4-5c-2.4-2-9,0.7-9.3,0.8c5.1-4.2,7.7-2.1,9.4-4.4
		c1.1-1.7,1.8-3.6,2.1-5.5c0.6,1.9,1.6,3.7,3,5.1C206.2,167.8,208.4,165.3,214.2,168.6L214.2,168.6z M216.2,161.4
		c-1,0-2.1-0.2-3-0.6c-0.8-0.3-1.6-0.7-2.3-1.1c-1.1-0.6-2.1-1.4-3-2.2c-0.4-0.3-0.7-0.6-1-1l1.3,0.5c0.8,0.3,2,0.8,3.4,1.3
		c0.7,0.2,1.5,0.4,2.2,0.6c0.8,0.2,1.6,0.2,2.3,0.1c0.3,0,0.7-0.1,1-0.3l0,0l0,0l0,0l0.2-0.1c0.1,0,0.2-0.1,0.2-0.2l0.1-0.1l0.1-0.1
		l0.2-0.2c0.7-0.6,1.3-1.2,1.8-2c0.6-0.7,1.1-1.6,1.7-2.4c0.6-0.8,1.1-1.6,1.7-2.4c0.6-0.8,1.4-1.5,2.2-2.1c0.2-0.2,0.5-0.3,0.8-0.4
		c0.1-0.1,0.3-0.1,0.4-0.1h0.1h0.1h0.2c0.2,0,0.4,0,0.5-0.1c0.2,0,0.3-0.1,0.4-0.1c0.6-0.2,1.2-0.5,1.7-0.8c0.4-0.3,0.8-0.6,1.2-1
		c0.3-0.3,0.7-0.6,1-1c-0.1,0.5-0.3,0.9-0.6,1.3c-0.3,0.5-0.6,1-0.9,1.4c-0.5,0.6-1,1.1-1.7,1.5c-0.4,0.2-0.8,0.4-1.2,0.6l-0.1,0.1
		h-0.1l0,0c-0.1,0-0.1,0-0.2,0.1c-0.1,0.1-0.2,0.2-0.3,0.3c-0.6,0.5-1.1,1.2-1.5,1.8c-0.5,0.7-1,1.6-1.5,2.4s-1.1,1.7-1.7,2.5
		c-0.7,0.9-1.4,1.7-2.3,2.4c-0.1,0.1-0.2,0.2-0.4,0.3c-0.1,0.1-0.3,0.2-0.4,0.2l-0.4,0.2l-0.2,0.1l-0.1,0.1H218
		C217.5,161.3,216.9,161.4,216.2,161.4L216.2,161.4z M192.6,192.7c0,0,4,3,6.4,2.7c1.8-0.2,3.5-0.9,5-1.9c1.3,1,3.1,1.3,4.7,0.8
		c2.2-0.6,4.3-1.6,6.3-2.8c-0.1,0.2-2.3,2.8-4.2,3.6c-1.9,0.8-5.4,0-6.7,0.1c-1.7,0.1-3.3,1.5-5.4,1.6
		C196.5,197,194.1,195.7,192.6,192.7L192.6,192.7z M190,181.8c0-0.3,0.2-0.6,0.4-0.8c0.4-0.4,0.9-0.6,1.4-0.7c2-0.3,4-0.5,6-0.3
		c3.6,0.2,3.6-0.5,4.6-1.3c1.3,0.9,2.8,1.4,4.4,1.5c2.1,0,7.1-0.2,9.1-2.1c0,0-2.3,4.4-5.8,3.6c-1.3-0.3-5.5-0.6-6.2,1.7
		c-0.3,1.5-0.4,2.9-0.4,4.4c0,1-0.1,2-0.1,2s-0.2-0.9-0.6-2.3c-0.4-1.7-0.6-3.1-1.5-4.4c-1.7-2.2-6.3-2.3-7.9-2
		C192.3,181.2,191.1,181.5,190,181.8L190,181.8z M170.1,139l0.4,0.2c0.2,0.2,0.6,0.4,1,0.7c0.4,0.3,1,0.7,1.6,1.2s1.2,1,1.9,1.7
		c0.7,0.7,1.4,1.5,2,2.3c0.2,0.2,0.3,0.5,0.5,0.7c0.2,0.2,0.3,0.5,0.5,0.7c0.2,0.3,0.3,0.6,0.4,0.8c0.1,0.3,0.2,0.5,0.3,0.8
		c0.1,0.3,0.2,0.5,0.3,0.8c0.1,0.3,0.2,0.5,0.3,0.7c0.2,0.5,0.5,0.9,0.8,1.4c0.6,0.9,1.3,1.7,2.2,2.4c0.8,0.7,1.8,1.3,2.7,1.9
		c1,0.5,2,1,3,1.4c0.5,0.2,1.1,0.4,1.5,0.6c0.4,0.2,0.9,0.3,1.4,0.4c0.8,0.2,1.7,0.2,2.5,0c0.7-0.2,1.4-0.5,2-0.9
		c0.5-0.4,0.9-0.8,1.3-1.3c0.3-0.3,0.5-0.6,0.7-1c0.2-0.2,0.2-0.4,0.2-0.4c0,0.1,0,0.3-0.1,0.4c-0.1,0.4-0.2,0.8-0.4,1.2
		c-0.3,0.6-0.6,1.2-1.1,1.7c-0.6,0.7-1.3,1.3-2.2,1.7c-0.5,0.2-1,0.4-1.6,0.5l-0.8,0.1c-0.3,0-0.6,0-0.8,0c-0.6,0-1.2-0.1-1.8-0.3
		s-1.1-0.3-1.7-0.5l-0.8-0.3c-0.3-0.1-0.6-0.2-0.8-0.3c-0.6-0.2-1.1-0.5-1.7-0.8c-1.2-0.6-2.3-1.3-3.3-2.1c-1-0.9-1.9-1.9-2.6-3
		c-0.2-0.3-0.3-0.6-0.5-0.8c-0.1-0.3-0.3-0.6-0.4-0.9c-0.1-0.3-0.2-0.6-0.3-0.9c-0.1-0.3-0.2-0.6-0.2-0.8c-0.1-0.3-0.2-0.5-0.3-0.8
		l-0.3-0.7c-0.1-0.2-0.2-0.4-0.3-0.7c-0.1-0.2-0.2-0.4-0.3-0.7c-0.5-0.8-1-1.6-1.5-2.4c-0.5-0.7-1-1.4-1.4-2
		c-0.4-0.6-0.8-1.1-1.2-1.5L170.1,139z"/>
	<path class="st0" d="M77.3,80.3c1.4,3.8,2.5,7.7,3.9,11.5l2.1,5.7c0.7,1.9,1.4,3.8,2.2,5.7l2.3,5.6c0.4,0.9,0.7,1.9,1.2,2.8
		l1.3,2.8l2.5,5.5c0.8,1.8,1.8,3.6,2.7,5.5c0.9,1.8,1.8,3.7,2.8,5.4l3,5.4c1,1.8,2.1,3.5,3.1,5.3c1,1.8,2.1,3.5,3.2,5.2
		c2.3,3.4,4.5,6.9,6.9,10.3c2.3,3.4,5,6.7,7.5,10c2.7,3.2,5.3,6.5,8.1,9.6l2.1,2.4c0.7,0.8,1.4,1.5,2.2,2.3l2.2,2.3
		c0.7,0.8,1.5,1.5,2.2,2.3c1.5,1.5,3,3,4.6,4.5l4.7,4.4l4.9,4.2l5,4.1l5.2,4c1.8,1.3,3.5,2.6,5.3,3.9c3.6,2.5,7.2,5,11,7.2
		c3.8,2.3,7.6,4.5,11.6,6.6c2,1,4,2,6,3c1,0.5,2,0.9,3,1.3l1.5,0.6l0.7,0.3l0.6,0.2H197l1.3-0.5c0.5-0.2,1-0.4,1.5-0.6
		c1-0.4,2-0.9,3-1.3c2-0.9,4-1.9,6-2.9c3.9-2,7.8-4.3,11.5-6.6c3.8-2.3,7.4-4.7,11-7.2c1.8-1.3,3.5-2.5,5.3-3.8l5.1-4l5-4.1l4.9-4.2
		l4.7-4.3c1.5-1.5,3-3,4.6-4.5c0.8-0.7,1.5-1.5,2.2-2.3l2.2-2.3c0.7-0.8,1.5-1.5,2.2-2.3l2.1-2.4c2.9-3.1,5.5-6.4,8.1-9.6
		c2.5-3.3,5.1-6.5,7.5-9.9c2.5-3.4,4.7-6.8,6.9-10.2c1.1-1.7,2.1-3.5,3.2-5.2s2.2-3.5,3.1-5.3l3-5.3c1-1.8,1.9-3.6,2.8-5.4
		c1-1.8,1.9-3.6,2.7-5.4l2.5-5.5l1.3-2.8c0.4-0.9,0.8-1.9,1.2-2.8l2.3-5.6c0.8-1.9,1.5-3.8,2.2-5.6l2.1-5.7
		c1.4-3.8,2.5-7.6,3.9-11.5c-0.3,2-0.6,3.9-0.8,5.9c-0.3,2-0.6,4-0.9,5.9l-1.3,5.9c-0.4,2-0.8,3.9-1.3,5.9l-1.5,5.8
		c-0.3,1-0.5,2-0.8,2.9l-0.9,2.9l-1.9,5.8c-0.7,1.9-1.4,3.8-2.1,5.7c-1.4,3.9-3.1,7.6-4.7,11.4c-0.8,1.9-1.8,3.8-2.7,5.6
		c-0.9,1.9-1.8,3.7-2.8,5.6c-2,3.7-4,7.4-6.3,10.9c-2.3,3.6-4.6,7.2-7,10.7c-2.5,3.5-5,7-7.8,10.3l-2.1,2.5
		c-0.7,0.8-1.4,1.7-2.2,2.5l-2.2,2.5c-0.7,0.8-1.4,1.7-2.2,2.5c-1.5,1.6-3,3.2-4.6,4.8l-4.8,4.7l-5,4.6l-5.1,4.5
		c-1.8,1.5-3.5,2.9-5.3,4.3c-1.8,1.4-3.7,2.8-5.5,4.2c-3.8,2.7-7.6,5.4-11.6,7.9c-4,2.5-8.1,4.9-12.4,7.2c-2.1,1.1-4.3,2.2-6.5,3.3
		c-1.1,0.5-2.2,1-3.4,1.5c-0.6,0.3-1.2,0.5-1.8,0.7l-0.9,0.4l-1,0.4l-2.9,1.1l-2.9-1.1l-1-0.4l-0.9-0.4c-0.6-0.2-1.2-0.5-1.8-0.7
		c-1.2-0.5-2.3-1-3.4-1.5c-2.2-1.1-4.4-2.2-6.6-3.3c-4.3-2.3-8.4-4.7-12.4-7.2c-4-2.5-7.8-5.2-11.6-7.9c-1.9-1.4-3.7-2.8-5.6-4.2
		s-3.6-2.9-5.3-4.3l-5.2-4.5l-5-4.6l-4.8-4.7c-1.6-1.6-3-3.2-4.6-4.9c-0.8-0.8-1.5-1.6-2.2-2.5l-2.2-2.5c-0.7-0.8-1.5-1.7-2.2-2.5
		l-2.1-2.5c-2.8-3.4-5.3-6.9-7.9-10.4c-2.4-3.6-4.9-7.1-7-10.7c-1.1-1.8-2.3-3.6-3.3-5.5l-3.1-5.5c-1-1.8-1.9-3.7-2.8-5.6
		c-1-1.9-1.9-3.7-2.7-5.6c-1.7-3.8-3.4-7.6-4.7-11.4c-0.7-1.9-1.5-3.8-2.1-5.8l-1.9-5.8L84,113c-0.3-1-0.5-2-0.8-2.9l-1.5-5.9
		c-0.5-1.9-0.9-3.9-1.3-5.9l-1.2-5.9c-0.4-2-0.6-3.9-0.9-5.9C77.8,84.3,77.5,82.3,77.3,80.3z"/>
	<path class="st0" d="M0.8,313.7c1.6-0.4,3.2-0.6,4.8-0.6c2.6,0,4.8,0.6,6.3,2c1.3,1.3,2,3.1,1.9,4.9c0.1,2.9-1.7,5.4-4.4,6.4v0.1
		c3.4,0.9,5.3,3.6,5.3,7.3c0.1,2.1-0.7,4.1-2,5.7c-1.6,1.9-4.3,2.6-7.6,2.6c-1.4,0-2.9-0.1-4.3-0.3L0.8,313.7L0.8,313.7z M4.1,325.5
		h1.5c2.7,0,5-2.2,5-4.9v-0.1c0-2.7-1.2-4.7-4.7-4.7c-0.6,0-1.2,0-1.7,0.2L4.1,325.5L4.1,325.5z M4.1,339.3c0.6,0.1,1.1,0.2,1.7,0.1
		c3.4,0,5.6-2,5.6-5.7c0-4-2.8-5.9-5.8-5.9H4.1V339.3z"/>
	<path class="st0" d="M31.2,331.6c0,8-3.7,10.7-6.9,10.7c-3.7,0-6.7-3.4-6.7-10.6c0-7.6,3.4-10.7,6.9-10.7S31.2,324.5,31.2,331.6z
		 M21,331.6c0,3.4,0.6,8.1,3.6,8.1s3.4-4.8,3.4-8.1c0-3.3-0.6-8-3.5-8S21,328.4,21,331.6L21,331.6z"/>
	<path class="st0" d="M47.5,312.5V337c0,1.4,0.1,3.7,0.2,4.9h-2.8l-0.2-2.6h-0.1c-0.7,1.7-2.4,2.9-4.3,2.9c-3.5,0-6-3.8-6-10.6
		c0-7.3,3.1-10.7,6.2-10.7c1.6,0,3.1,0.9,3.8,2.4h0.1v-11L47.5,312.5L47.5,312.5z M44.2,329.1c0-0.5,0-0.9-0.1-1.4
		c-0.2-2.2-1.5-4-3.1-4c-2.7,0-3.7,3.8-3.7,7.9c0,4.4,1.1,7.8,3.5,7.8c1,0,2.4-0.5,3.2-3.5c0.1-0.5,0.1-0.9,0.1-1.4L44.2,329.1
		L44.2,329.1z"/>
	<path class="st0" d="M53.8,321.4l2.7,11.9c0.4,1.6,0.6,3,0.8,4.3h0.1c0.2-1.2,0.6-2.7,0.8-4.2l2.5-11.9h3.2l-3.4,13.3
		c-1.3,5.2-2.7,10.2-5.1,13.3c-1,1.3-2.3,2.4-3.7,3.1l-1.2-2.8c1.1-0.7,2.1-1.5,2.9-2.6c0.8-1.1,1.4-2.2,1.9-3.5
		c0.1-0.3,0.2-0.7,0.2-1c0-0.3,0-0.5-0.1-0.8l-5.2-19.1L53.8,321.4L53.8,321.4z"/>
	<path class="st0" d="M73.9,313.7c1.6-0.4,3.2-0.6,4.8-0.6c2.6,0,4.8,0.6,6.3,2c1.3,1.3,2,3.1,1.9,4.9c0.1,2.9-1.7,5.4-4.4,6.4v0.1
		c3.4,0.9,5.3,3.6,5.3,7.3c0.1,2.1-0.7,4.1-2,5.7c-1.6,1.9-4.3,2.6-7.6,2.6c-1.4,0-2.9-0.1-4.3-0.3L73.9,313.7L73.9,313.7z
		 M77.1,325.5h1.5c2.7,0,5-2.2,5-4.9v-0.1c0-2.7-1.2-4.7-4.7-4.7c-0.6,0-1.2,0-1.7,0.2L77.1,325.5L77.1,325.5z M77.1,339.3
		c0.6,0.1,1.1,0.2,1.7,0.1c3.4,0,5.6-2,5.6-5.7c0-4-2.8-5.9-5.9-5.9h-1.4V339.3z"/>
	<path class="st0" d="M103.7,336.3c0,2.3,0.1,4.1,0.2,5.6H101l-0.2-2.2h-0.1c-1,1.5-2.6,2.5-4.4,2.5c-3.6,0-5-2.8-5-7.9v-13.1h3.3
		v12.6c0,3.2,0.5,5.7,2.8,5.7c1.9,0,2.8-1.8,3-2.8c0.1-0.6,0.2-1.2,0.2-1.8v-13.6h3.3L103.7,336.3L103.7,336.3z"/>
	<path class="st0" d="M111.9,316c0.1,1.1-0.7,2-1.8,2.1c-1.1,0.1-2-0.7-2.1-1.8c0-0.1,0-0.2,0-0.3c-0.1-1.1,0.6-2,1.7-2.2
		c1.1-0.1,2,0.6,2.2,1.7C111.9,315.7,111.9,315.8,111.9,316z M108.3,341.9v-20.6h3.3v20.6H108.3z"/>
	<path class="st0" d="M116.1,312.5h3.3v29.5h-3.3V312.5z"/>
	<path class="st0" d="M136.6,312.5V337c0,1.4,0.1,3.7,0.2,4.9H134l-0.2-2.6h-0.1c-0.7,1.7-2.4,2.9-4.3,2.9c-3.5,0-6-3.8-6-10.6
		c0-7.3,3.1-10.7,6.2-10.7c1.6,0,3.1,0.9,3.8,2.4h0.1v-11L136.6,312.5L136.6,312.5z M133.4,329.1c0-0.5,0-0.9-0.1-1.4
		c-0.2-2.2-1.5-4-3.1-4c-2.7,0-3.7,3.8-3.7,7.9c0,4.4,1.1,7.8,3.5,7.8c1,0,2.4-0.5,3.2-3.5c0.1-0.5,0.1-0.9,0.1-1.4L133.4,329.1
		L133.4,329.1z"/>
	<path class="st0" d="M144.8,316c0.1,1.1-0.7,2-1.8,2.1c-1.1,0.1-2-0.7-2.1-1.8c0-0.1,0-0.2,0-0.3c-0.1-1.1,0.6-2,1.7-2.2
		c1.1-0.1,2,0.6,2.2,1.7C144.8,315.7,144.8,315.8,144.8,316z M141.2,341.9v-20.6h3.3v20.6H141.2z"/>
	<path class="st0" d="M149.1,326.7c0-2.4-0.1-3.7-0.2-5.3h2.9l0.2,2.5h0.1c0.9-1.8,2.7-2.9,4.7-2.8c2.9,0,5,2.1,5,7.1V342h-3.3
		v-13.3c0-2.5-0.5-4.9-2.9-4.9c-1.4,0-2.7,1.1-3.1,3.4c-0.1,0.6-0.2,1.2-0.2,1.8v13H149L149.1,326.7L149.1,326.7z"/>
	<path class="st0" d="M179,321.4c-0.1,1.4-0.2,3.3-0.2,6.4v11.5c0,5.4-0.7,7.5-2,9c-1.4,1.5-3.4,2.3-5.5,2.2c-1.6,0-3.1-0.3-4.6-1
		l0.8-2.6c1.2,0.6,2.5,0.9,3.8,0.9c2.6,0,4.2-1.6,4.2-6.3v-2.1h-0.1c-0.7,1.6-2.2,2.6-3.9,2.5c-3.7,0-6.1-4.1-6.1-10.2
		c0-7.6,3.4-10.7,6.5-10.7c2.2,0,3.2,1.4,3.8,2.7h0.1l0.2-2.3H179L179,321.4z M175.6,328.4c0-0.5,0-1-0.2-1.5
		c-0.4-1.4-1.1-3.1-3-3.1c-2.4,0-3.7,3.2-3.7,7.8c0,5.3,1.7,7.7,3.6,7.7c1,0,2.3-0.5,2.9-3c0.2-0.6,0.2-1.2,0.2-1.8L175.6,328.4
		L175.6,328.4z"/>
	<path class="st0" d="M190.4,313.3h10.9v2.9h-7.7v10.1h7.2v2.8h-7.2v13h-3.3L190.4,313.3z"/>
	<path class="st0" d="M206,331.9c0,6.3,2.5,7.7,4.9,7.7c1.2,0,2.4-0.2,3.4-0.8l0.5,2.4c-1.4,0.7-3,1-4.6,1c-4.9,0-7.5-4-7.5-10.4
		c0-6.7,2.8-10.9,7-10.9c4.1,0,5.9,4.4,5.9,9.1c0,0.8,0,1.4-0.1,1.9L206,331.9L206,331.9z M212.5,329.5c0.1-4.1-1.5-6-3.1-6
		c-2.2,0-3.2,3.1-3.4,6H212.5z"/>
	<path class="st0" d="M231.6,312.5V337c0,1.4,0.1,3.7,0.2,4.9H229l-0.2-2.6h-0.1c-0.7,1.7-2.4,2.9-4.3,2.9c-3.5,0-6-3.8-6-10.6
		c0-7.3,3.1-10.7,6.2-10.7c1.6,0,3.1,0.9,3.8,2.4h0.1v-11L231.6,312.5L231.6,312.5z M228.4,329.1c0-0.5,0-0.9-0.1-1.4
		c-0.2-2.2-1.5-4-3.1-4c-2.7,0-3.7,3.8-3.7,7.9c0,4.4,1.1,7.8,3.5,7.8c1,0,2.4-0.5,3.2-3.5c0.1-0.5,0.1-0.9,0.1-1.4L228.4,329.1
		L228.4,329.1z"/>
	<path class="st0" d="M238.5,331.9c0,6.3,2.5,7.7,4.9,7.7c1.2,0,2.4-0.2,3.4-0.8l0.5,2.4c-1.4,0.7-3,1-4.6,1c-4.9,0-7.5-4-7.5-10.4
		c0-6.7,2.8-10.9,7-10.9c4.1,0,5.9,4.4,5.9,9.1c0,0.8,0,1.4-0.1,1.9L238.5,331.9L238.5,331.9z M245,329.5c0.1-4.1-1.5-6-3.1-6
		c-2.2,0-3.2,3.1-3.4,6H245z"/>
	<path class="st0" d="M251.7,326.7c0-1.7-0.1-3.8-0.2-5.3h2.9l0.2,3.2h0.1c0.7-2,2.4-3.6,4.3-3.6c0.2,0,0.5,0,0.7,0v3.4
		c-0.2,0-0.4,0-0.7,0c-2.1,0-3.6,1.9-4,4.3c-0.1,0.6-0.1,1.2-0.1,1.9v11.4h-3.3L251.7,326.7L251.7,326.7z"/>
	<path class="st0" d="M269.9,341.9l-0.2-2.2h-0.1c-0.8,1.6-2.4,2.5-4.1,2.5c-2.8,0-4.9-2.3-4.9-5.9c0-5.2,4.1-7.4,8.8-7.5v-0.7
		c0-2.8-0.7-4.7-3.3-4.7c-1.2,0-2.4,0.4-3.4,1.1l-0.7-2.3c1.4-0.9,3.1-1.4,4.8-1.3c4.1,0,5.9,2.7,5.9,7.4v9c0,1.6,0,3.1,0.2,4.7
		L269.9,341.9L269.9,341.9z M269.4,331.2c-1.7,0-5.7,0.3-5.7,4.8c0,2.7,1.4,3.6,2.5,3.6c1.4,0,2.7-1.1,3-3.1
		c0.1-0.4,0.1-0.8,0.1-1.2L269.4,331.2L269.4,331.2z"/>
	<path class="st0" d="M280.9,315.9v5.5h4v2.5h-4v12.3c0,2.7,1,3.4,2.2,3.4c0.4,0,0.9,0,1.3-0.1l0.2,2.5c-0.8,0.2-1.6,0.4-2.4,0.3
		c-1.2,0.1-2.4-0.4-3.2-1.2c-0.8-0.9-1.2-2.3-1.2-5.2v-12h-2.5v-2.5h2.5v-4.5L280.9,315.9z"/>
	<path class="st0" d="M291.2,316c0.1,1.1-0.7,2-1.8,2.1c-1.1,0.1-2-0.7-2.1-1.8c0-0.1,0-0.2,0-0.3c-0.1-1.1,0.7-2,1.8-2.1
		c0.1,0,0.1,0,0.2,0c1.1,0,2,0.8,2,1.9C291.2,315.8,291.2,315.9,291.2,316z M287.6,341.9v-20.6h3.3v20.6H287.6z"/>
	<path class="st0" d="M308.2,331.6c0,8-3.7,10.7-6.9,10.7c-3.7,0-6.7-3.4-6.7-10.6c0-7.6,3.4-10.7,6.9-10.7
		C305.1,321,308.2,324.5,308.2,331.6z M297.9,331.6c0,3.4,0.6,8.1,3.6,8.1s3.4-4.8,3.4-8.1c0-3.3-0.6-8-3.5-8
		C298.4,323.6,297.9,328.4,297.9,331.6L297.9,331.6z"/>
	<path class="st0" d="M311.8,326.7c0-2.4-0.1-3.7-0.2-5.3h2.9l0.2,2.5h0.1c0.9-1.8,2.7-2.9,4.7-2.8c2.9,0,5,2.1,5,7.1V342h-3.3
		v-13.3c0-2.5-0.5-4.9-2.9-4.9c-1.4,0-2.7,1.1-3.1,3.4c-0.1,0.6-0.2,1.2-0.2,1.8v13h-3.2V326.7L311.8,326.7z"/>
	<path class="st0" d="M331.3,312.9l-0.6,10h-1.9l-0.6-10H331.3z"/>
	<path class="st0" d="M335,338.5c1,0.7,2.2,1,3.4,1.1c1.6,0.1,2.9-1,3.1-2.6c0-0.1,0-0.3,0-0.4c0-1.6-0.6-2.7-2.6-4
		c-2.7-1.7-4.2-3.5-4.2-5.9c-0.1-3.1,2.3-5.6,5.4-5.7c0.1,0,0.2,0,0.3,0c1.3,0,2.6,0.4,3.7,1.1l-0.8,2.5c-0.8-0.6-1.8-1-2.8-1
		c-1.4-0.1-2.6,1-2.7,2.4c0,0.1,0,0.2,0,0.3c0,1.4,0.5,2.2,2.5,3.6c2.4,1.5,4.3,3.4,4.3,6.3c0,4.1-2.8,6.1-6.2,6.1
		c-1.5,0-2.9-0.4-4.1-1.2L335,338.5z"/>
	<path class="st0" d="M367.4,341.4c-1.3,0.6-2.7,0.8-4.1,0.8c-5.6,0-9.6-4.5-9.6-14.3c0-11.3,5.6-15,10.2-15
		c1.2-0.1,2.5,0.2,3.6,0.7l-0.7,2.8c-0.9-0.4-1.9-0.7-2.9-0.6c-3.1,0-6.7,3-6.7,11.8s3.2,11.7,6.8,11.7c1,0,2.1-0.2,3-0.6
		L367.4,341.4z"/>
	<path class="st0" d="M381.8,336.3c0,2.3,0.1,4.1,0.2,5.6h-2.9l-0.2-2.2h-0.1c-1,1.5-2.6,2.5-4.4,2.5c-3.6,0-5-2.8-5-7.9v-13.1h3.3
		v12.6c0,3.2,0.5,5.7,2.8,5.7c1.9,0,2.8-1.8,3-2.8c0.1-0.6,0.2-1.2,0.2-1.8v-13.6h3.3L381.8,336.3L381.8,336.3z"/>
	<path class="st0" d="M386.4,327.8c0-3.2-0.1-5-0.2-6.4h2.9l0.2,2.6h0.1c1.1-2.2,2.8-3,4.4-3c3.6,0,6,3.8,6,10.6
		c0,7.7-3.2,10.7-6.4,10.7c-1.6,0-3-0.9-3.6-2.4h-0.1V350h-3.3V327.8L386.4,327.8z M389.6,334.3c0,0.6,0,1.1,0.2,1.7
		c0.6,2.9,2.1,3.5,3,3.5c2.7,0,3.6-3.7,3.6-7.9c0-4.3-1-7.9-3.6-7.9c-1.5,0-2.8,1.9-3,3.7c-0.1,0.5-0.1,1-0.1,1.6L389.6,334.3
		L389.6,334.3z"/>
	<path class="st0" d="M12.7,292.8c-1.2,0-2.4-0.2-3.6-0.7c-1-0.4-1.9-1.2-2.5-2.1c-0.2,0.4-0.5,0.7-0.9,0.9c-0.4,0.2-0.7,0.4-1,0.6
		c-0.3,0.2-0.6,0.5-0.8,0.8c-0.3,0.5-0.4,1-0.4,1.6v6.4H0.2v-7.2c0-0.7,0.1-1.4,0.4-2c0.2-0.5,0.5-0.9,0.9-1.3
		c0.4-0.3,0.8-0.6,1.2-0.8s0.8-0.5,1.2-0.7s0.7-0.5,1-0.8c0.3-0.3,0.5-0.8,0.5-1.2c0-0.3,0-0.6-0.1-0.8c0-0.3,0-0.6,0-1
		c0-3,0.7-5.2,2-6.5c3.2-2.7,7.8-2.7,10.9,0c1.3,1.3,2,3.5,2,6.5c0,1.3-0.2,2.6-0.5,3.8c-0.3,1-0.8,1.9-1.5,2.6
		c-0.6,0.7-1.5,1.2-2.3,1.5C14.8,292.7,13.8,292.9,12.7,292.8z M12.7,278.9c-1.2-0.1-2.4,0.4-3.2,1.4c-0.7,1.2-1.1,2.6-1,4
		c-0.1,1.4,0.2,2.9,1,4.1c1.8,1.7,4.6,1.7,6.4,0c0.8-1.2,1.1-2.7,1-4.1c0.1-1.4-0.3-2.8-1-4C15.2,279.4,14,278.8,12.7,278.9z"/>
	<path class="st0" d="M25.1,266.4c0-0.2,0.1-0.4,0.3-0.4h0.1H28c0.2,0,0.4,0.1,0.4,0.3v0.1v21.1c-0.1,0.6,0.1,1.2,0.5,1.6
		c0.4,0.3,0.9,0.5,1.4,0.5h1.7c0.8-0.1,1.5,0.4,1.6,1.2c0,0.1,0,0.3,0,0.4c0,0.7-0.1,1.1-0.4,1.2c-0.4,0.2-0.8,0.3-1.2,0.3h-2.3
		c-1.6,0-2.8-0.4-3.5-1.2c-0.8-1.1-1.2-2.4-1.1-3.7L25.1,266.4L25.1,266.4z"/>
	<path class="st0" d="M31.9,292.6c-0.4,0.1-0.8-0.1-1.1-0.3c-0.2-0.3-0.3-0.7-0.3-1.2c0-0.4,0-0.9,0.3-1.3c0.3-0.2,0.7-0.3,1.1-0.3
		h4.3c0.4,0,0.8,0.1,1.2,0.3c0.3,0.3,0.4,0.7,0.4,1.1c0.1,0.5-0.1,0.9-0.4,1.3c-0.4,0.2-0.8,0.3-1.2,0.3L31.9,292.6L31.9,292.6z"/>
	<path class="st0" d="M36.2,292.6c-0.4,0.1-0.8-0.1-1.1-0.3c-0.2-0.3-0.3-0.7-0.3-1.2c0-0.4,0-0.9,0.3-1.3c0.3-0.2,0.7-0.3,1.1-0.3
		h4.3c0.4,0,0.8,0.1,1.2,0.3c0.3,0.3,0.4,0.7,0.4,1.1c0.1,0.5-0.1,0.9-0.4,1.3c-0.4,0.2-0.8,0.3-1.2,0.3L36.2,292.6L36.2,292.6z"/>
	<path class="st0" d="M52.5,292.6c-0.8,0-1.5-0.2-2.2-0.5c-0.6-0.3-1.1-0.9-1.4-1.5c-0.6,1.4-2,2-4.1,2h-4.2c-0.4,0-0.8-0.1-1.2-0.3
		c-0.3-0.3-0.4-0.7-0.4-1.1c-0.1-0.5,0.1-1,0.4-1.3c0.3-0.3,0.8-0.4,1.2-0.4h3.6c0.5,0,1-0.1,1.4-0.5c0.4-0.5,0.5-1,0.4-1.6v-7.1
		c0-0.2,0.1-0.4,0.3-0.4h0.1h2.5c0.2,0,0.4,0.1,0.4,0.3v0.1v6.5c0,0.8,0.3,1.5,0.9,2c0.7,0.5,1.6,0.7,2.5,0.7h0.9
		c0.5,0,1-0.1,1.4-0.5c0.4-0.5,0.5-1,0.4-1.6v-7.1c0-0.2,0.1-0.4,0.3-0.4h0.1h2.5c0.2,0,0.4,0.1,0.4,0.3v0.1v6.7
		c0,0.8,0.3,1.5,1,1.9c0.8,0.4,1.6,0.7,2.5,0.6h0.9c0.5,0,1-0.1,1.4-0.5c0.4-0.5,0.5-1,0.4-1.6v-10.5c0-0.2,0.1-0.4,0.3-0.4h0.1h2.8
		c0.2,0,0.4,0.1,0.4,0.3v0.1v9.9c0,0.8,0.3,1.5,1,2c0.8,0.5,1.6,0.7,2.5,0.7h0.4c0.4,0,0.8,0.1,1.2,0.3c0.3,0.3,0.4,0.7,0.4,1.1
		c0,0.7-0.1,1.1-0.4,1.3c-0.4,0.2-0.8,0.3-1.2,0.3h-0.8c-0.8,0-1.5-0.2-2.2-0.5c-0.6-0.3-1.1-0.9-1.4-1.5c-0.7,1.4-2,2-4.1,2H62
		c-0.8,0-1.5-0.2-2.2-0.5c-0.6-0.3-1.1-0.9-1.4-1.5c-0.7,1.4-2,2-4.1,2L52.5,292.6L52.5,292.6z"/>
	<path class="st0" d="M72.5,292.6c-0.4,0.1-0.8-0.1-1.1-0.3c-0.2-0.3-0.3-0.7-0.3-1.2c0-0.4,0-0.9,0.3-1.3c0.3-0.2,0.7-0.3,1.1-0.3
		h4.3c0.4,0,0.8,0.1,1.2,0.3c0.3,0.3,0.4,0.7,0.4,1.1c0.1,0.5-0.1,0.9-0.4,1.3c-0.4,0.2-0.8,0.3-1.2,0.3L72.5,292.6L72.5,292.6z"/>
	<path class="st0" d="M85.9,278.9c-0.8,0-1.7,0.2-2.4,0.5c-0.7,0.4-1.4,0.9-2,1.5c-0.1,0.2-0.4,0.2-0.5,0l0,0l-1.7-1.4
		c-0.2-0.2-0.3-0.4-0.1-0.5c0.7-0.9,1.7-1.7,2.7-2.3c1.2-0.6,2.6-0.9,4-0.9c1.5-0.1,3,0.2,4.4,0.8c1.1,0.5,2,1.3,2.7,2.2
		c0.7,0.9,1.2,2,1.4,3.2c0.3,1.2,0.4,2.5,0.4,3.7c0,1.1-0.1,2.2-0.3,3.2c-0.2,0.8-0.5,1.5-1,2.1c-0.5,0.5-1.1,0.9-1.8,1.1
		c-0.8,0.2-1.7,0.3-2.5,0.3H76.8c-0.8,0.1-1.5-0.4-1.6-1.2c0-0.1,0-0.3,0-0.4c0-0.7,0.1-1.1,0.4-1.2c0.4-0.2,0.8-0.3,1.2-0.3h11.1
		c0.6,0,1.2,0,1.8-0.2c0.4-0.1,0.8-0.3,1-0.6c0.3-0.3,0.4-0.7,0.5-1.2c0.1-0.6,0.1-1.2,0.1-1.8c0-0.9-0.1-1.9-0.3-2.8
		c-0.2-0.8-0.5-1.5-0.9-2.2c-0.4-0.6-1-1.1-1.6-1.4C87.7,279,86.8,278.9,85.9,278.9z M85.2,299.8c-0.2,0-0.4-0.1-0.4-0.3v-0.1v-2.9
		c0-0.2,0.1-0.4,0.3-0.4h0.1h2.7c0.3,0,0.4,0.1,0.4,0.4v2.9c0,0.2-0.1,0.4-0.3,0.4h-0.1H85.2z"/>
	<path class="st0" d="M109.8,289.5h4.6c0.5,0,1-0.1,1.4-0.5c0.4-0.5,0.5-1,0.4-1.6v-21.1c0-0.2,0.1-0.4,0.3-0.4h0.1h2.5
		c0.2,0,0.4,0.1,0.4,0.3v0.1v21.3c0.1,1.3-0.3,2.7-1.1,3.7c-0.7,0.8-1.9,1.2-3.5,1.2H98.8c-0.2,0-0.4-0.1-0.4-0.3v-0.1v-2.2
		c0-0.2,0.1-0.4,0.3-0.4h0.1h7.7v-17.6c0-0.2,0.1-0.4,0.3-0.4h0.1h2.5c0.2,0,0.4,0.1,0.4,0.3v0.1V289.5L109.8,289.5z M105.7,267.3
		c-0.2-0.3-0.4-0.7-0.5-1.1c-0.1-0.4-0.2-0.9-0.2-1.4c0-0.4,0.1-0.9,0.2-1.3c0.1-0.5,0.4-0.9,0.7-1.3c0.3-0.4,0.8-0.7,1.2-0.9
		c0.6-0.3,1.2-0.4,1.9-0.4c0.6,0,1.2,0.1,1.8,0.4c0.5,0.2,0.9,0.6,1.3,1c0.1,0.2,0.1,0.3,0,0.4l-0.8,0.7c-0.2,0.2-0.3,0.2-0.4,0.1
		c-0.2-0.3-0.5-0.5-0.8-0.6c-0.3-0.2-0.7-0.3-1.1-0.3c-0.6,0-1.2,0.2-1.6,0.7c-0.4,0.4-0.5,1-0.5,1.6c0,0.5,0.1,1.1,0.4,1.5
		c0.2,0.4,0.5,0.7,0.9,1h4c0.2,0,0.2,0.1,0.2,0.3v1.1c0,0.2-0.1,0.3-0.2,0.3h-7.9c-0.2,0-0.2-0.1-0.2-0.3v-1.1
		c0-0.2,0.1-0.3,0.2-0.3L105.7,267.3z"/>
	<path class="st0" d="M128.2,292.2c0,0.2-0.1,0.4-0.3,0.4h-0.1h-2.5c-0.2,0-0.4-0.1-0.4-0.3v-0.1v-25.8c0-0.2,0.1-0.4,0.3-0.4h0.1
		h2.5c0.2,0,0.4,0.1,0.4,0.3v0.1V292.2z"/>
	<path class="st0" d="M144.6,283.8c0.1-0.2,0.3-0.2,0.5,0l2.2,1.1c0.2,0.1,0.2,0.3,0.2,0.4c0,0,0,0,0,0.1c-0.5,0.9-1,1.8-1.3,2.7
		c-0.4,1.1-0.7,2.2-0.6,3.4c0,1,0.2,1.9,0.6,2.8c0.3,0.7,0.8,1.3,1.5,1.8c0.6,0.4,1.2,0.7,2,0.9c0.7,0.2,1.4,0.3,2.1,0.3
		c1.5,0.1,2.9-0.4,4.1-1.3c1.1-0.9,1.6-2.3,1.6-4.2v-25.3c0-0.2,0.1-0.4,0.3-0.4h0.1h2.5c0.2,0,0.4,0.1,0.4,0.3v0.1v25.4
		c0.1,2.3-0.7,4.6-2.4,6.3c-1.6,1.5-3.9,2.3-6.8,2.3c-1.3,0-2.6-0.2-3.8-0.6c-1.1-0.4-2.1-0.9-2.9-1.7c-0.8-0.7-1.4-1.7-1.9-2.7
		c-0.5-1.2-0.7-2.4-0.7-3.7c0-1.5,0.3-3,0.8-4.4C143.3,286.1,143.9,284.9,144.6,283.8z"/>
	<path class="st0" d="M166,266.4c0-0.2,0.1-0.4,0.3-0.4h0.1h2.5c0.2,0,0.4,0.1,0.4,0.3v0.1v21.1c-0.1,0.6,0.1,1.2,0.4,1.6
		c0.4,0.3,0.9,0.5,1.4,0.5h1.7c0.8-0.1,1.5,0.4,1.6,1.2c0,0.1,0,0.3,0,0.4c0,0.7-0.1,1.1-0.4,1.2c-0.4,0.2-0.8,0.3-1.2,0.3h-2.3
		c-1.7,0-2.8-0.4-3.5-1.2c-0.8-1.1-1.2-2.4-1.1-3.7L166,266.4L166,266.4z"/>
	<path class="st0" d="M172.9,292.6c-0.4,0.1-0.8-0.1-1.1-0.3c-0.2-0.3-0.3-0.7-0.3-1.2c0-0.4,0-0.9,0.3-1.3c0.3-0.2,0.7-0.3,1.1-0.3
		h4.3c0.4,0,0.8,0.1,1.2,0.3c0.3,0.3,0.4,0.7,0.4,1.1c0.1,0.5-0.1,0.9-0.4,1.3c-0.4,0.2-0.8,0.3-1.2,0.3L172.9,292.6L172.9,292.6z"
		/>
	<path class="st0" d="M177.2,292.6c-0.4,0.1-0.8-0.1-1.1-0.3c-0.2-0.3-0.3-0.7-0.3-1.2c0-0.4,0-0.9,0.3-1.3c0.3-0.2,0.7-0.3,1.1-0.3
		h4.3c0.4,0,0.8,0.1,1.2,0.3c0.3,0.3,0.4,0.7,0.4,1.1c0.1,0.5-0.1,0.9-0.4,1.3c-0.4,0.2-0.8,0.3-1.2,0.3L177.2,292.6L177.2,292.6z"
		/>
	<path class="st0" d="M193.3,292.8c-1.1,0-2.2-0.2-3.2-0.5c-0.9-0.3-1.7-0.9-2.4-1.7c-0.5,0.8-1.2,1.3-2.1,1.6
		c-0.8,0.2-1.6,0.3-2.4,0.3h-1.7c-0.8,0.1-1.5-0.4-1.6-1.2c0-0.1,0-0.3,0-0.4c0-0.7,0.1-1.1,0.4-1.2c0.4-0.2,0.8-0.3,1.2-0.3h2
		c0.3,0,0.6-0.1,0.8-0.2c0.3-0.1,0.6-0.3,0.8-0.6c0.3-0.3,0.5-0.7,0.6-1.1c0.2-0.5,0.2-1.1,0.2-1.7c0-0.3,0-0.5,0-0.8v-0.8
		c0-3,0.7-5.2,2-6.5c3.2-2.7,7.8-2.7,10.9,0c1.3,1.3,2,3.5,2,6.5c0,0.3,0,0.6,0,0.8c0,0.2,0,0.6-0.1,0.8c-0.1,1,0.2,2,0.8,2.7
		c0.4,0.4,1,0.7,1.6,0.7h1.1c0.4,0,0.8,0.1,1.2,0.3c0.3,0.3,0.4,0.7,0.4,1.1c0,0.7-0.1,1.1-0.4,1.3c-0.4,0.2-0.8,0.3-1.2,0.3h-0.8
		c-0.4,0-0.8,0-1.2-0.1c-0.4,0-0.8-0.1-1.2-0.3c-0.4-0.1-0.8-0.3-1.2-0.6c-0.4-0.3-0.7-0.6-0.9-1c-0.6,0.7-1.5,1.3-2.4,1.6
		C195.6,292.7,194.5,292.9,193.3,292.8z M193.3,278.9c-1.2-0.1-2.4,0.4-3.2,1.4c-0.7,1.2-1.1,2.6-1,4c-0.1,1.4,0.2,2.9,1,4.1
		c1.8,1.7,4.6,1.7,6.4,0c0.8-1.2,1.1-2.7,1-4.1c0.1-1.4-0.3-2.8-1-4C195.8,279.4,194.6,278.8,193.3,278.9z"/>
	<path class="st0" d="M204.2,292.6c-0.4,0.1-0.8-0.1-1.1-0.3c-0.2-0.3-0.3-0.7-0.3-1.2c0-0.4,0-0.9,0.3-1.3c0.3-0.2,0.7-0.3,1.1-0.3
		h4.3c0.4,0,0.8,0.1,1.2,0.3c0.3,0.3,0.4,0.7,0.4,1.1c0.1,0.5-0.1,0.9-0.4,1.3c-0.4,0.2-0.8,0.3-1.2,0.3L204.2,292.6L204.2,292.6z"
		/>
	<path class="st0" d="M215.4,276.6h3.5c1.8-0.1,3.5,0.5,4.9,1.7c1.3,1.1,1.9,2.9,1.9,5.3v2.3c0,1.1-0.1,2.2-0.3,3.2
		c-0.2,0.8-0.5,1.5-1,2.1c-0.5,0.5-1.1,0.9-1.8,1.1c-0.8,0.2-1.7,0.3-2.5,0.3h-11.5c-0.8,0.1-1.5-0.4-1.6-1.2c0-0.1,0-0.3,0-0.4
		c0-0.7,0.1-1.1,0.4-1.2c0.4-0.2,0.8-0.3,1.2-0.3h10.3c0.6,0,1.2,0,1.8-0.2c0.4-0.1,0.7-0.3,1-0.6c0.2-0.3,0.4-0.7,0.5-1.1
		c0.1-0.6,0.1-1.1,0.1-1.7v-2.4c0-2.6-1.5-3.9-4.5-3.9h-6.3c-0.2,0-0.4-0.1-0.4-0.3v-0.1V277c0-0.1,0-0.3,0.1-0.4s0.1-0.2,0.2-0.3
		l8.6-10.1c0.1-0.2,0.3-0.2,0.5-0.1l1.9,1.6c0.2,0.1,0.3,0.4,0.2,0.5L215.4,276.6z"/>
	<path class="st0" d="M254.1,285.9c0,1.1-0.1,2.2-0.3,3.2c-0.2,0.8-0.5,1.5-1,2.1c-0.5,0.5-1.1,0.9-1.8,1.1
		c-0.8,0.2-1.7,0.3-2.5,0.3h-8.7c-0.2,0-0.4-0.1-0.4-0.3v-0.1v-2.3c0-0.2,0.1-0.4,0.3-0.4h0.1h7.5c0.6,0,1.2,0,1.8-0.2
		c0.4-0.1,0.7-0.3,1-0.6s0.4-0.7,0.5-1.1c0.1-0.6,0.1-1.1,0.1-1.7v-3c0-2.6-1.5-4-4.5-3.9h-4.5c-0.2,0-0.4-0.1-0.4-0.3v-0.1v-2.3
		c0-0.2,0.1-0.4,0.3-0.4h0.1h5.7c1.8-0.1,3.5,0.5,4.9,1.7c1.3,1.1,1.9,2.9,1.9,5.3L254.1,285.9z"/>
	<path class="st0" d="M259,266.4c0-0.3,0.1-0.4,0.4-0.4h2.5c0.2,0,0.4,0.1,0.4,0.3v0.1v21.1c-0.1,0.6,0.1,1.2,0.4,1.6
		c0.4,0.3,0.9,0.5,1.4,0.5h1.7c0.8-0.1,1.5,0.4,1.6,1.2c0,0.1,0,0.3,0,0.4c0,0.7-0.1,1.1-0.4,1.2c-0.4,0.2-0.8,0.3-1.2,0.3h-2.3
		c-1.6,0-2.8-0.4-3.5-1.2c-0.8-1.1-1.2-2.4-1.1-3.7L259,266.4L259,266.4z"/>
	<path class="st0" d="M265.9,292.6c-0.4,0.1-0.8-0.1-1.1-0.3c-0.2-0.3-0.3-0.7-0.3-1.2c0-0.4,0-0.9,0.3-1.3c0.3-0.2,0.7-0.3,1.1-0.3
		h4.3c0.4,0,0.8,0.1,1.2,0.3c0.3,0.3,0.4,0.7,0.4,1.1c0.1,0.5-0.1,0.9-0.4,1.3c-0.4,0.2-0.8,0.3-1.2,0.3L265.9,292.6L265.9,292.6z"
		/>
	<path class="st0" d="M270.2,292.6c-0.4,0.1-0.8-0.1-1.1-0.3c-0.2-0.3-0.3-0.7-0.3-1.2c0-0.4,0-0.9,0.3-1.3c0.3-0.2,0.7-0.3,1.1-0.3
		h4.3c0.4,0,0.8,0.1,1.2,0.3c0.3,0.3,0.4,0.7,0.4,1.1c0.1,0.5-0.1,0.9-0.4,1.3c-0.4,0.2-0.8,0.3-1.2,0.3L270.2,292.6L270.2,292.6z"
		/>
	<path class="st0" d="M283.7,278.9c-0.8,0-1.7,0.2-2.4,0.5c-0.7,0.4-1.4,0.9-2,1.5c-0.1,0.2-0.4,0.2-0.5,0l0,0l-1.7-1.4
		c-0.2-0.2-0.3-0.4-0.1-0.5c0.7-0.9,1.7-1.7,2.7-2.3c1.2-0.6,2.6-0.9,4-0.9c1.5-0.1,3,0.2,4.4,0.8c1.1,0.5,2,1.3,2.7,2.3
		c0.7,0.9,1.2,2,1.4,3.2c0.3,1.2,0.4,2.5,0.4,3.7c0,0.2,0,0.5,0,0.7s0,0.4,0,0.6c0,0.7,0.4,1.4,1,1.8c0.8,0.4,1.6,0.7,2.5,0.6h0.4
		c0.4,0,0.8,0.1,1.2,0.3c0.3,0.3,0.4,0.7,0.4,1.1c0,0.7-0.1,1.1-0.4,1.3c-0.4,0.2-0.8,0.3-1.2,0.3h-0.8c-0.8,0-1.7-0.2-2.4-0.6
		c-0.7-0.4-1.2-1-1.5-1.7c-0.4,0.8-1.1,1.4-1.9,1.8c-1,0.4-2,0.5-3,0.5h-12.4c-0.8,0.1-1.5-0.4-1.6-1.2c0-0.1,0-0.3,0-0.4
		c0-0.7,0.1-1.1,0.4-1.2c0.4-0.2,0.8-0.3,1.2-0.3h11.1c0.6,0,1.2,0,1.8-0.2c0.4-0.1,0.8-0.3,1-0.6c0.3-0.3,0.4-0.7,0.5-1.2
		c0.1-0.6,0.1-1.2,0.1-1.8c0-0.9-0.1-1.9-0.3-2.8c-0.2-0.8-0.5-1.5-0.9-2.2c-0.4-0.6-1-1.1-1.6-1.4
		C285.4,279.1,284.6,278.9,283.7,278.9z"/>
	<path class="st0" d="M296.3,292.6c-0.4,0-0.8-0.1-1.2-0.3c-0.3-0.3-0.4-0.7-0.4-1.1c-0.1-0.5,0.1-1,0.4-1.3
		c0.3-0.3,0.8-0.4,1.2-0.4h2.7c0.5,0,1-0.1,1.4-0.5c0.4-0.5,0.5-1,0.4-1.6v-10.5c0-0.2,0.1-0.4,0.3-0.4h0.1h2.5
		c0.2,0,0.4,0.1,0.4,0.3v0.1v10.7c0.1,1.3-0.3,2.7-1.1,3.7c-0.7,0.8-1.9,1.2-3.5,1.2L296.3,292.6L296.3,292.6z M298.8,272.7
		c-0.2,0-0.4-0.1-0.4-0.3v-0.1v-2.9c0-0.2,0.1-0.4,0.3-0.4h0.1h2.7c0.2,0,0.4,0.1,0.4,0.3v0.1v2.9c0,0.2-0.1,0.4-0.3,0.4h-0.1H298.8
		z M303.6,272.7c-0.3,0-0.4-0.1-0.4-0.4v-2.9c0-0.2,0.1-0.4,0.3-0.4h0.1h2.7c0.2,0,0.4,0.1,0.4,0.3v0.1v2.9c0,0.2-0.1,0.4-0.3,0.4
		h-0.1H303.6z"/>
	<path class="st0" d="M313.1,292.2c0,0.2-0.1,0.4-0.3,0.4h-0.1h-2.5c-0.2,0-0.4-0.1-0.4-0.3v-0.1v-25.8c0-0.3,0.1-0.4,0.4-0.4h2.5
		c0.2,0,0.4,0.1,0.4,0.3v0.1V292.2z"/>
	<path class="st0" d="M348.5,292.6c-1.2,0.1-2.3-0.4-3.1-1.3v0.5c0.1,2.3-0.7,4.6-2.4,6.3c-1.6,1.5-3.9,2.3-6.8,2.3
		c-1.3,0-2.6-0.2-3.8-0.6c-1.1-0.4-2.1-0.9-2.9-1.7c-0.8-0.7-1.4-1.7-1.9-2.7c-0.5-1.2-0.7-2.4-0.7-3.7c0-1.5,0.3-3,0.8-4.4
		c0.4-1.3,1-2.5,1.8-3.6c0.1-0.2,0.3-0.2,0.5,0l2.2,1.2c0.2,0.1,0.2,0.3,0.2,0.4c0,0,0,0,0,0.1c-0.5,0.9-1,1.8-1.3,2.7
		c-0.4,1.1-0.7,2.2-0.6,3.4c0,1,0.2,1.9,0.6,2.8c0.3,0.7,0.8,1.3,1.5,1.8c0.6,0.4,1.2,0.7,2,0.9c0.7,0.2,1.4,0.3,2.1,0.3
		c1.5,0.1,2.9-0.4,4.1-1.3c1.1-0.9,1.6-2.3,1.6-4.2v-11.4c0-0.2,0.1-0.4,0.3-0.4h0.1h2.5c0.2,0,0.4,0.1,0.4,0.3v0.1v6.7
		c0,0.8,0.3,1.5,1,1.9c0.8,0.4,1.6,0.7,2.5,0.6h0.9c0.5,0,1-0.2,1.4-0.5c0.4-0.5,0.5-1,0.4-1.6v-7.1c0-0.2,0.1-0.4,0.3-0.4h0.1h2.5
		c0.2,0,0.4,0.1,0.4,0.3v0.1v6.7c0,0.8,0.3,1.5,1,1.9c0.8,0.4,1.6,0.7,2.5,0.6h0.9c0.5,0,1-0.1,1.4-0.5c0.4-0.5,0.5-1,0.4-1.6V277
		c0-0.2,0.1-0.4,0.3-0.4h0.1h2.5c0.2,0,0.4,0.1,0.4,0.3v0.1v10.7c0.1,1.3-0.3,2.7-1.1,3.7c-0.7,0.8-1.9,1.2-3.5,1.2h-1.9
		c-0.8,0-1.5-0.2-2.2-0.5c-0.6-0.3-1.1-0.9-1.4-1.5c-0.7,1.4-2,2-4.1,2L348.5,292.6L348.5,292.6z"/>
	<path class="st0" d="M369.1,262.4c-0.2-0.3-0.4-0.7-0.5-1.1c-0.1-0.4-0.2-0.9-0.2-1.4c0-0.4,0.1-0.9,0.2-1.3
		c0.1-0.5,0.4-0.9,0.7-1.3c0.3-0.4,0.8-0.7,1.2-0.9c0.6-0.3,1.2-0.4,1.9-0.4c0.6,0,1.2,0.1,1.8,0.4c0.5,0.2,0.9,0.6,1.3,1
		c0.1,0.2,0.1,0.3,0,0.4l-0.8,0.7c-0.2,0.2-0.3,0.2-0.4,0.1c-0.2-0.3-0.5-0.5-0.8-0.6c-0.3-0.2-0.7-0.3-1.1-0.3
		c-0.6,0-1.2,0.2-1.6,0.7c-0.4,0.4-0.5,1-0.5,1.6c0,0.5,0.1,1.1,0.4,1.5c0.2,0.4,0.5,0.7,0.8,1h4c0.2,0,0.2,0.1,0.2,0.3v1.1
		c0,0.2-0.1,0.3-0.2,0.3h-7.9c-0.2,0-0.2-0.1-0.2-0.3v-1.1c0-0.2,0.1-0.3,0.2-0.3L369.1,262.4z M369.8,266.4c0-0.3,0.1-0.4,0.4-0.4
		h2.5c0.2,0,0.4,0.1,0.4,0.3v0.1v21.1c-0.1,0.6,0.1,1.2,0.4,1.6c0.4,0.3,0.9,0.5,1.4,0.5h1.7c0.8-0.1,1.5,0.4,1.6,1.2
		c0,0.1,0,0.3,0,0.4c0,0.7-0.1,1.1-0.4,1.2c-0.4,0.2-0.8,0.3-1.2,0.3h-2.3c-1.6,0-2.8-0.4-3.5-1.2c-0.8-1.1-1.2-2.4-1.1-3.7
		L369.8,266.4L369.8,266.4z"/>
	<path class="st0" d="M376.7,292.6c-0.4,0.1-0.8-0.1-1.1-0.3c-0.2-0.3-0.3-0.7-0.3-1.2c0-0.4,0-0.9,0.3-1.3c0.3-0.2,0.7-0.3,1.1-0.3
		h4.3c0.4,0,0.8,0.1,1.2,0.3c0.3,0.3,0.4,0.7,0.4,1.1c0.1,0.5-0.1,0.9-0.4,1.3c-0.4,0.2-0.8,0.3-1.2,0.3L376.7,292.6L376.7,292.6z"
		/>
	<path class="st0" d="M387.9,276.6h3.5c1.8-0.1,3.5,0.5,4.9,1.7c1.3,1.1,1.9,2.9,1.9,5.3v2.3c0,1.1-0.1,2.2-0.3,3.2
		c-0.2,0.8-0.5,1.5-1,2.1c-0.5,0.5-1.1,0.9-1.8,1.1c-0.8,0.2-1.7,0.3-2.5,0.3h-11.5c-0.8,0.1-1.5-0.4-1.6-1.2c0-0.1,0-0.3,0-0.4
		c0-0.7,0.1-1.1,0.4-1.2c0.4-0.2,0.8-0.3,1.2-0.3h10.3c0.6,0,1.2,0,1.8-0.2c0.4-0.1,0.7-0.3,1-0.6c0.2-0.3,0.4-0.7,0.5-1.1
		c0.1-0.6,0.1-1.1,0.1-1.7v-2.4c0-2.6-1.5-3.9-4.5-3.9H384c-0.2,0-0.4-0.1-0.4-0.3v-0.1V277c0-0.1,0-0.3,0.1-0.4s0.1-0.2,0.2-0.3
		l8.5-10.1c0.1-0.2,0.3-0.2,0.5-0.1l1.9,1.6c0.2,0.1,0.3,0.4,0.2,0.5L387.9,276.6z"/>
	<path class="st0" d="M1.3,368.2c1-0.3,2.1-0.5,3.2-0.5c2.2,0,3.7,0.6,4.7,1.7c1.1,1.2,1.6,2.8,1.5,4.4c0.2,2.7-1.4,5.2-3.9,6.2v0.1
		c1.8,0.5,2.8,2.2,3.4,5.7c0.2,1.9,0.7,3.9,1.3,5.7H10c-0.6-1.9-1-3.9-1.3-6c-0.6-3.4-1.8-4.9-4.6-4.9H2.8v10.8H1.3V368.2L1.3,368.2
		z M2.8,379.5h1.4c2.9,0,5-2.1,5-5.4c0-3.2-1.3-5-4.7-5c-0.5,0-1.1,0-1.6,0.1L2.8,379.5L2.8,379.5z"/>
	<path class="st0" d="M16.5,370.3c0,0.8-0.4,1.3-1.2,1.3c-0.6,0-1.1-0.5-1.1-1.3c-0.1-0.6,0.4-1.2,1-1.3h0.1
		C16.1,369,16.5,369.6,16.5,370.3z M14.6,391.5v-16.8h1.5v16.8H14.6z"/>
	<path class="st0" d="M20.3,374.7l2.6,10.2c0.4,1.5,0.6,2.7,0.8,3.9h0.1c0.2-1,0.6-2.5,0.9-3.9l2.4-10.2h1.5l-2.3,9.4
		c-1.2,4.9-2.4,9.5-4.5,12.3c-0.7,1-1.5,1.9-2.5,2.5l-0.8-1.3c1-0.7,1.8-1.5,2.5-2.5s1.2-2.2,1.6-3.4c0.1-0.3,0.2-0.6,0.2-0.9
		c0-0.2,0-0.4-0.1-0.6l-4-15.5H20.3L20.3,374.7z"/>
	<path class="st0" d="M37.1,391.5l-0.1-1.9h-0.1c-0.5,1.3-1.8,2.1-3.2,2.1c-2.1,0-3.7-1.7-3.7-4.6c0-4.1,3.1-6,6.9-6v-0.6
		c0-2.9-0.5-4.8-2.9-4.8c-0.9,0-1.7,0.3-2.4,0.8l-0.4-1.2c0.9-0.6,2-1,3.1-1c2.3,0,4.1,1.3,4.1,5.4v8c0,1.3,0,2.5,0.1,3.8
		L37.1,391.5z M36.8,382.5c-1.3,0-5.3,0.1-5.3,4.6c0,2.5,1.2,3.4,2.3,3.4c1.4,0,2.5-1.2,2.9-3.2c0.1-0.4,0.1-0.7,0.1-1.1V382.5
		L36.8,382.5z"/>
	<path class="st0" d="M51.3,367.2V388c0,0.8,0.1,2.8,0.1,3.4h-1.3l-0.1-2.2h-0.1c-0.5,1.5-2,2.5-3.5,2.5c-2.4,0-4.7-2.5-4.7-8.6
		c0-6.1,2.5-8.8,4.9-8.8c1.4,0,2.7,0.9,3.2,2.2h0.1v-9.3H51.3z M49.8,381c0-0.4,0-0.8,0-1.2c-0.1-2.2-1.5-4.1-3.1-4.1
		c-2.6,0-3.5,3.6-3.5,7.4c0,3.8,1,7.4,3.3,7.4c1,0,2.5-0.5,3.2-3.8c0.1-0.4,0.1-0.8,0.1-1.2V381L49.8,381z"/>
	<path class="st0" d="M55.4,367.2h1.5v9.3H57c0.4-0.6,0.8-1.1,1.4-1.5c0.7-0.4,1.4-0.6,2.2-0.6c1.5,0,3.7,1.1,3.7,5.3v11.8h-1.5
		v-11.2c0-2.3-0.6-4.6-2.7-4.6c-1.5,0-2.7,1.2-3.2,3.4c-0.1,0.4-0.1,0.8-0.1,1.3v11.2h-1.5L55.4,367.2L55.4,367.2z"/>
	<path class="st0" d="M175.8,391.5v-0.9l1.7-2.5c2.6-3.8,6.3-8.8,6.3-13.7c0-2.9-1.2-4.7-3.4-4.7c-1.2,0-2.4,0.5-3.2,1.3l-0.6-1.1
		c1.1-1.1,2.6-1.6,4.1-1.6c3.1,0,4.7,2.5,4.7,6c0,4.3-2.9,8.9-5.8,13.3L178,390v0.1h8v1.4L175.8,391.5L175.8,391.5z"/>
	<path class="st0" d="M198.7,380.1c0,8.4-2.4,11.7-5.5,11.7c-2.7,0-5-3.3-5-11.7c0-8.4,2.4-11.7,5.5-11.7
		C196.3,368.4,198.7,371.7,198.7,380.1z M189.7,380.1c0,5.6,1.1,10.3,3.8,10.3s3.7-4.7,3.7-10.3c0-5.6-1.1-10.3-3.8-10.3
		C190.8,369.8,189.7,374.5,189.7,380.1z"/>
	<path class="st0" d="M206.4,370.5L206.4,370.5l-3.8,2.3l-0.4-1.2l4.6-2.9h1.1v22.8h-1.5L206.4,370.5L206.4,370.5z"/>
	<path class="st0" d="M214.5,390.4c0.5,0,1-0.1,1.4-0.2c1.3-0.4,2.5-1.1,3.4-2.1c1.4-1.7,2.5-4,2.9-7.6h-0.1c-0.9,1.3-2.4,2.2-4,2.2
		c-2.8,0-4.7-2.6-4.7-6.7c0-4.3,2.2-7.6,5.1-7.6c3.7,0,5.3,4.3,5.3,9c0,4.1-0.8,7.6-2.5,10.3c-1.2,1.9-2.9,3.2-5,3.8
		c-0.5,0.1-1.1,0.2-1.7,0.2L214.5,390.4L214.5,390.4z M215,375.8c0,4,1.6,5.5,3.7,5.5c1.6-0.1,2.9-1.1,3.5-2.5
		c0.1-0.3,0.2-0.5,0.2-0.8c0-5.9-1.7-8.2-3.8-8.2C217,369.7,215,371.2,215,375.8L215,375.8z"/>
	<path class="st0" d="M333,389.7c0,0.8,0.2,1.7,0.5,2.4c0.3,0.6,0.8,1.1,1.3,1.5c0.5,0.4,1.1,0.6,1.8,0.8c0.6,0.1,1.2,0.2,1.8,0.2
		c0.7,0,1.4-0.1,2-0.3c0.6-0.2,1.2-0.4,1.7-0.8c0.5-0.4,0.9-0.9,1.1-1.5c0.3-0.7,0.4-1.4,0.3-2.2V378c0-0.1,0.1-0.3,0.2-0.3h0.1h1.1
		c0.1,0,0.3,0.1,0.3,0.2v0.1v1.2c1.1-0.6,2.3-1.1,3.6-1.5c1.3-0.4,2.7-0.6,4-0.6c1.3-0.1,2.6,0.2,3.8,0.7c1.7,0.7,3,2.3,3.3,4.1
		c0.2,0.8,0.3,1.7,0.3,2.6c0,1.1-0.1,2.2-0.4,3.2c-0.2,0.7-0.6,1.3-1.1,1.8c-0.6,0.4-1.3,0.7-2,0.7c-1,0.1-1.9,0.1-2.9,0.1h-8.7
		c-0.1,0.8-0.2,1.6-0.6,2.4c-0.3,0.7-0.8,1.4-1.3,1.9c-0.6,0.6-1.4,1-2.2,1.3c-2,0.6-4.1,0.6-6.1,0c-0.8-0.3-1.6-0.7-2.2-1.3
		c-0.6-0.6-1.1-1.3-1.4-2.1c-0.3-0.9-0.5-1.8-0.5-2.7c0-1.2,0.2-2.5,0.7-3.6c0.4-1,0.8-1.9,1.4-2.7c0.1-0.1,0.2-0.1,0.4,0l1,0.6
		c0.1,0.1,0.2,0.2,0.1,0.3c0,0,0,0,0,0.1c-0.5,0.7-0.9,1.5-1.2,2.3C333.2,387.8,333,388.7,333,389.7z M353.2,379
		c-0.7,0-1.4,0.1-2.1,0.2c-0.7,0.1-1.4,0.3-2.1,0.5s-1.3,0.5-1.9,0.7c-0.6,0.2-1.2,0.5-1.7,0.8v7.5h9.4c0.6,0,1.1,0,1.7-0.1
		c0.4-0.1,0.8-0.2,1.1-0.5c0.3-0.3,0.5-0.8,0.6-1.2c0.1-0.7,0.2-1.5,0.2-2.2c0-0.8-0.1-1.6-0.3-2.3c-0.1-0.6-0.4-1.3-0.8-1.8
		c-0.5-0.5-1-0.9-1.7-1.1C354.9,379.1,354.1,379,353.2,379L353.2,379z M352.6,374.7c-0.1,0-0.3-0.1-0.3-0.2v-0.1v-1.9
		c0-0.1,0.1-0.3,0.2-0.3h0.1h1.3c0.1,0,0.3,0.1,0.3,0.2v0.1v1.9c0,0.1-0.1,0.3-0.2,0.3h-0.1H352.6z"/>
	<path class="st0" d="M364.6,369.4c0-0.1,0.1-0.3,0.2-0.3h0.1h1.1c0.1,0,0.3,0.1,0.3,0.2v0.1v17.7c-0.1,0.5,0.1,1,0.4,1.3
		c0.3,0.3,0.8,0.4,1.2,0.4h1.6c0.8,0,1.3,0.3,1.3,0.9c0,0.4-0.1,0.7-0.3,0.8c-0.3,0.1-0.6,0.1-1,0.1h-1.2c-1,0.1-2-0.2-2.8-0.8
		c-0.6-0.7-0.9-1.7-0.8-2.6L364.6,369.4L364.6,369.4z"/>
	<path class="st0" d="M375,379.6v6.9c0.1,1.1-0.2,2.1-0.8,3c-0.8,0.7-1.8,1.1-2.8,1h-1.9c-0.3,0-0.6,0-0.9-0.1
		c-0.2-0.1-0.3-0.3-0.3-0.6c0-0.3,0.1-0.7,0.3-0.8c0.3-0.1,0.6-0.2,1-0.2h2.3c0.4,0,0.8-0.1,1.2-0.4c0.3-0.4,0.4-0.8,0.4-1.3v-8.9
		c0-0.1,0.1-0.3,0.2-0.3h0.1h1.1c0.1,0,0.1,0,0.2,0h2v1.8L375,379.6L375,379.6z M370.5,395.6c-0.2,0-0.3-0.1-0.3-0.2c0,0,0,0,0-0.1
		v-1.9c0-0.2,0.1-0.3,0.2-0.3c0,0,0,0,0.1,0h1.7c0.1,0,0.3,0.1,0.3,0.2v0.1v1.9c0,0.2-0.1,0.3-0.2,0.3c0,0,0,0-0.1,0H370.5z
		 M374.4,395.6c-0.2,0-0.3-0.1-0.3-0.2c0,0,0,0,0-0.1v-1.9c0-0.1,0.1-0.3,0.2-0.3h0.1h1.6c0.1,0,0.3,0.1,0.3,0.2v0.1v1.9
		c0,0.1-0.1,0.3-0.2,0.3H376H374.4z"/>
	<path class="st0" d="M383.3,386.3c0,0.7,0.3,1.4,0.8,1.8c0.7,0.4,1.4,0.6,2.2,0.6h0.2c0.3,0,0.6,0,0.9,0.2c0.2,0.1,0.3,0.4,0.3,0.6
		c0,0.5-0.1,0.8-0.3,0.8c-0.3,0.1-0.6,0.1-1,0.1c-0.6,0-1.2,0-1.8-0.2c-0.5-0.1-1-0.4-1.4-0.8v2.5c0.1,1.2-0.3,2.5-1.1,3.4
		c-0.9,0.9-2.2,1.3-3.5,1.2h-0.5c-0.2,0-0.3-0.1-0.3-0.2c0,0,0,0,0-0.1v-1.1c0-0.1,0.1-0.3,0.2-0.3h0.1h0.7c1.3,0.2,2.5-0.8,2.7-2.1
		c0-0.2,0-0.4,0-0.6V378c0-0.1,0.1-0.3,0.2-0.3h0.1h1.1c0.2,0,0.3,0.1,0.3,0.2c0,0,0,0,0,0.1L383.3,386.3L383.3,386.3z"/>
	<path class="st0" d="M390.5,369.4c0-0.1,0.1-0.3,0.2-0.3h0.1h3.4l-0.1,1.8h-1.9v15.7c0,0.6,0,1.2-0.2,1.8c-0.1,0.5-0.3,0.9-0.6,1.2
		c-0.3,0.3-0.7,0.6-1.1,0.7c-0.5,0.2-1,0.2-1.5,0.3h-2.3c-0.3,0-0.6,0-0.9-0.2c-0.2-0.1-0.3-0.3-0.3-0.7c0-0.4,0.1-0.6,0.3-0.8
		c0.3-0.1,0.6-0.2,1-0.2h2.3c0.4,0,0.9-0.1,1.2-0.4c0.3-0.4,0.5-0.8,0.4-1.3V369.4L390.5,369.4z"/>
	<path class="st0" d="M399,390.1c0,0.2-0.1,0.3-0.2,0.3c0,0,0,0-0.1,0h-1.1c-0.1,0-0.3-0.1-0.3-0.2v-0.1v-20.8
		c0-0.1,0.1-0.3,0.2-0.3h0.1h1.1c0.1,0,0.3,0.1,0.3,0.2v0.1V390.1z"/>
	<line class="st1" x1="70.9" y1="390.3" x2="170.3" y2="390.3"/>
	<rect x="70.8" y="389.4" class="st0" width="0.3" height="1.9"/>
	<line class="st1" x1="226.1" y1="390.3" x2="325.5" y2="390.3"/>
	<rect x="325.3" y="389.4" class="st0" width="0.3" height="1.9"/>
</g>
</svg>
