<svg id="Layer_1" data-name="Layer 1" xmlns="http://www.w3.org/2000/svg" viewBox="0 0 400 398.23"><defs><style>.cls-1{fill:#fff;}.cls-2{fill:none;stroke:#fff;stroke-miterlimit:10;stroke-width:0.35px;}</style></defs><title>logo-01</title><path class="cls-1" d="M235.74,24.86s15-5.41,51,6.45c0,0-15.28-18.93-62.39-18.3,0,0-.51-2.91,8.22-5.41,0,0-10.52-3.12-23.75,2.29,0,0-1.8-7.88-7.54-9h-.05c-5.73,1.12-7.65,9-7.65,9C180.31,4.48,169.79,7.6,169.79,7.6,178.51,10.1,178,13,178,13c-47.11-.63-62.38,18.3-62.38,18.3,35.94-11.86,50.95-6.45,50.95-6.45C123.19,34.22,116.64,61,116.64,61c23.88-20.7,49.93-25.17,49.93-25.17C135.51,61.67,144.11,76,144.11,76c18-26.72,34-31.08,34-31.08-9.24,17.05-2.86,39.58-1.85,36.25,8.23-30.6,21.9-47.25,22.42-47.88.7.63,19.1,17.28,27.33,47.88,1,3.33,7.4-19.21-1.84-36.25,0,0,16,4.36,34,31.08,0,0,8.6-14.35-22.46-40.24,0,0,26.06,4.48,49.93,25.17C285.67,61,279.12,34.22,235.74,24.86Z" transform="translate(0 -0.88)"/><path class="cls-1" d="M139.3,130.73c3.14,3.33,7.59,9.57,10,11.16s6.65,2.49,9.58,3.23a5.76,5.76,0,0,1,1,.38,60.84,60.84,0,0,1,4.72-6.4,3.37,3.37,0,0,1,.84-1c-.07.07-.38.42-.84,1-1.09,1.76-1.62,4.89-1.9,7.59s-.27,4.94-.27,4.94c0,.62.06,1.31.07,2.06.11,5.62,10,20.63,12.5,24.45a23.36,23.36,0,0,1,3.51,9.9c.32,2.2,1.11,5.16,1,6.65a14,14,0,0,0,3.67,3.7c1.48.74,4,1,6.32,3a8.57,8.57,0,0,1,.94,1,12,12,0,0,1,1.9,3.07c-.08-.11-.81-1-1.69-1.92-.34-.33-.69-.68-1-1a4.33,4.33,0,0,0-1.53-.94c-1.46-.32-3.47.2-4.61-.69-.76-.59-3.34-2.9-5-4.4a13.56,13.56,0,0,0-1.17,2.31c-.83,2,1,3.94,1,3.94s19.49,9.74,17.83,33.42c2-1.73,3.86-3.51,5.71-5.36q3.09-3.06,6-6.33c1-1.09,1.89-2.21,2.79-3.33s1.78-2.29,2.63-3.46,1.68-2.37,2.45-3.59c.09-.15.2-.3.28-.45l0,0A40.58,40.58,0,0,0,222,200.29h0c.19-.78.34-1.45.45-2v0c0-.17.07-.33.09-.47s0-.06,0-.1,0-.22.06-.31a.83.83,0,0,0,0-.13c0-.09,0-.16,0-.23s0,0,0-.06c0-.21.05-.33.05-.33a25.8,25.8,0,0,0-2.09,4.21,11.81,11.81,0,0,1,1.84-6.27c.07-1.22.94-3.34.77-6.47-.19-3.39-.68-10.32-.68-10.32l.06-.07c-.29-3-.89-7.52-1.87-9.62l-.35-.6a3.06,3.06,0,0,1,.35.6c.73,1.26,2.38,4.14,4.07,7.25,1.72-1.89,4-4.48,5.51-6.33,2.59-3.26,5.62-12,5.62-12h0a14.91,14.91,0,0,0,.74-5.45,26.82,26.82,0,0,1,1.71,5.69,60.19,60.19,0,0,0,10.16.23c3.89-.5,9.3-5.43,13-7.87s4.28-4.56,4.51-7.09-1-12.43-3.3-17.17-11.26-12.93-11.62-15-2.58-4.08-4-5.93a3.89,3.89,0,0,0-3.78-1.3c-.85-2.7-2.9-.47-2.9-.47-1.32-1.95-2.39.29-2.39.29-1.68-.76-2.45,1.81-3.14,3.21a4.49,4.49,0,0,0-.1,4.21c.71,1-.39.66-.75,1.77s2,2.52,2.74,2.9,2.62-.75,2.62-.75c.6.85,2.36-.64,2.36-.64a1.48,1.48,0,0,0,1.7,0c.6.76,1.12.53,1.12.53a35.61,35.61,0,0,0,1.61,5.33,21,21,0,0,1,1.27,9.92,26.93,26.93,0,0,1-.47,2.69c3.27,2.79,7.43,5.76,7.43,5.76-3.17.53-8.07-3.53-8.07-3.53-5.27-3.15-10.22.85-10.22.85S233,136.9,233,138.72a7.49,7.49,0,0,1,1.48-4.61l-2.29-1.38c-4-2.44-5.22-2.53-9.21-2s-6.42,6.62-10.46,5.34c0,0-4.48-.5-6.83,1.21-.5.5-.83.86-.9.94a3.22,3.22,0,0,1,.9-.94,21.88,21.88,0,0,1,4.43-3.46c-.82-2.18-.17-5.32-.49-7.62-.45-3.36,4-5.06,3.36-14.59s-5.54-10.63-9.33-12.1-8.57,1.24-11.43,3.44-2.18,2.87-2,3.75a2.75,2.75,0,0,1-1.12,2.77,4.14,4.14,0,0,0-1.67,2.47,20.1,20.1,0,0,0-.45,6.48,14.21,14.21,0,0,1-.33,4.68c-.25,1.27,3.22,4.3,4.43,4.83a.82.82,0,0,1,.44.53h0a26.39,26.39,0,0,0,6.15-.72c2.44-.74,8.19-7,8.19-7s-2.16,5.21-5.82,7.48c-2.79,1.74-6.74,1.85-8.46,1.8-.06.36-.11.69-.18,1,7.52,2.65,8.09,7.63,8.09,7.63-1.5-2.57-8.34-6.65-8.34-6.65-2.76,1.3-8-4.88-12.19-7.84-3.08-2.18-8.12-1.14-10.56-.45a37.38,37.38,0,0,0,.82,5c-1.72-1.34-2.25-4.51-2.25-4.51s-1.1-1.35-3.34-4.65c-1.79-2.61-7.07-2.86-9.18-2.85l-.89,0-8.63.71a29.55,29.55,0,0,1,9.14-2.78c.42-3,.7-8.23,1-10.22.5-2.73,3.64-9.07,3.64-9.07l1.32.87c1.33.88,2.92-.33,2.92-.33,1.25,1,4,.29,4,.29,1.59.77,2.87-1,4.88-2.64s-.19-5.62-.14-8.22-3-1.63-3-1.63c-.49-2.65-4.31-1.26-4.31-1.26-.81-1.18-3.24.81-5,.95s-9,7.55-10.92,9.68a79.63,79.63,0,0,1-9.86,9.41c-3.7,2.81-4.28,9.83-4.54,11s-1.77,3.45-2.53,6.11S136.17,127.41,139.3,130.73Zm75,37.87c-.29-.06-7.29-1.62-9.32.78a12.1,12.1,0,0,0-2.5,5.44,12.08,12.08,0,0,0-3.36-5c-2.4-2-9,.66-9.32.77,5.15-4.17,7.73-2.11,9.42-4.4a13.32,13.32,0,0,0,2.09-5.54,13.45,13.45,0,0,0,3,5.12C206.28,167.79,208.5,165.33,214.26,168.6Zm2.09-7.17a8.62,8.62,0,0,1-3-.59,13.52,13.52,0,0,1-2.32-1.11,18.73,18.73,0,0,1-3-2.23,8.94,8.94,0,0,1-1-1l1.28.55c.82.34,2,.81,3.36,1.27a18.15,18.15,0,0,0,2.23.59,8,8,0,0,0,2.33.14,3,3,0,0,0,1-.27h0l0,0,.16-.08.23-.15.1-.06.11-.09.24-.18a12.56,12.56,0,0,0,1.78-2c.58-.75,1.12-1.56,1.69-2.36s1.12-1.62,1.74-2.38a9.38,9.38,0,0,1,2.19-2.11,3.23,3.23,0,0,1,.77-.37,2.54,2.54,0,0,1,.44-.13l.11,0h0l.16,0a3.81,3.81,0,0,0,.53-.09,2.46,2.46,0,0,0,.44-.12,7,7,0,0,0,1.66-.84c.47-.34.88-.67,1.21-1,.6-.54.93-.91,1-1a6,6,0,0,1-.57,1.29,7.73,7.73,0,0,1-.93,1.37A6.83,6.83,0,0,1,228.7,150a6.29,6.29,0,0,1-1.23.55l-.14.05h-.14l-.15.09a1.92,1.92,0,0,0-.34.26,9.71,9.71,0,0,0-1.45,1.86c-.49.75-1,1.58-1.49,2.41s-1.09,1.7-1.73,2.55a12.12,12.12,0,0,1-2.32,2.38c-.11.1-.24.17-.36.26a3,3,0,0,1-.4.25c-.15.08-.31.17-.41.21l-.17.07-.13.06-.12,0A5.21,5.21,0,0,1,216.35,161.43Zm-23.7,31.24s4,3,6.4,2.73a11.93,11.93,0,0,0,5.06-1.87,5.4,5.4,0,0,0,4.65.83,27.43,27.43,0,0,0,6.33-2.75,16.76,16.76,0,0,1-4.16,3.64c-1.89.92-5.37,0-6.66.08-1.72.1-3.29,1.46-5.36,1.56C196.53,197,194.06,195.68,192.65,192.67ZM190,181.8a1.4,1.4,0,0,1,.45-.85,2.58,2.58,0,0,1,1.39-.71,25.91,25.91,0,0,1,6-.34c3.6.24,3.62-.48,4.63-1.28a9.47,9.47,0,0,0,4.42,1.52c2.14,0,7.14-.16,9.13-2.06,0,0-2.34,4.39-5.77,3.62-1.27-.28-5.53-.65-6.23,1.68a23,23,0,0,0-.38,4.42c0,1-.07,2-.07,2s-.21-.92-.6-2.28a10.35,10.35,0,0,0-1.55-4.41c-1.66-2.19-6.29-2.27-7.88-2A35.37,35.37,0,0,0,190,181.8Zm-19.83-42.89.38.21c.25.16.61.37,1,.68s1,.69,1.57,1.17,1.24,1,1.9,1.69a19.6,19.6,0,0,1,2,2.31,6.14,6.14,0,0,1,.48.7c.15.24.31.46.46.75s.31.57.43.85.22.51.33.78.2.52.31.78.22.48.33.72a13.41,13.41,0,0,0,.8,1.38,11.85,11.85,0,0,0,2.16,2.38,16.71,16.71,0,0,0,2.74,1.86,31.64,31.64,0,0,0,3,1.45c.48.22,1.06.43,1.51.62a10.86,10.86,0,0,0,1.37.38,5.29,5.29,0,0,0,2.5,0,5.38,5.38,0,0,0,2-.93,7.51,7.51,0,0,0,1.3-1.27,9.51,9.51,0,0,0,.72-1c.15-.24.22-.38.22-.38s0,.15-.09.44a6,6,0,0,1-.39,1.2,6.66,6.66,0,0,1-1,1.73,5.88,5.88,0,0,1-2.19,1.65,6.18,6.18,0,0,1-1.56.47l-.85.08a6.39,6.39,0,0,1-.87,0,11,11,0,0,1-1.77-.28c-.59-.16-1.07-.29-1.65-.48l-.86-.29-.85-.33a16.86,16.86,0,0,1-1.69-.76,16.37,16.37,0,0,1-3.28-2.12,13,13,0,0,1-2.61-3c-.16-.29-.33-.56-.48-.86s-.28-.59-.41-.88-.23-.59-.33-.89-.17-.57-.25-.84-.17-.54-.25-.81l-.27-.65c-.08-.22-.21-.45-.31-.67a6,6,0,0,0-.35-.66,26.78,26.78,0,0,0-1.49-2.4c-.51-.73-1-1.39-1.45-2s-.85-1.08-1.19-1.48C170.56,139.43,170.18,139,170.13,138.91Z" transform="translate(0 -0.88)"/><path class="cls-1" d="M77.17,80.21c1.36,3.83,2.55,7.68,3.91,11.5l2.11,5.69c.72,1.89,1.35,3.79,2.18,5.65l2.34,5.62c.39.93.75,1.87,1.17,2.8l1.28,2.77,2.53,5.53c.86,1.84,1.83,3.64,2.74,5.47s1.76,3.66,2.8,5.43l3,5.36c1,1.8,2.08,3.54,3.12,5.3s2.08,3.54,3.23,5.25c2.29,3.45,4.47,6.92,6.94,10.27s5,6.66,7.48,10c2.68,3.23,5.28,6.48,8.15,9.6l2.09,2.36c.7.78,1.45,1.54,2.17,2.31l2.19,2.31c.72.77,1.46,1.53,2.23,2.27,1.53,1.49,3,3,4.57,4.47l4.71,4.36,4.87,4.24,5,4.11,5.16,4c1.77,1.29,3.51,2.59,5.3,3.85,3.6,2.5,7.25,5,11,7.25s7.61,4.54,11.56,6.57q3,1.54,6,3c1,.45,2,.92,3,1.34l1.49.63.72.3.62.24H197l1.35-.54c.48-.19,1-.41,1.48-.63,1-.42,2-.89,3-1.34q3-1.41,6-2.95c3.93-2,7.77-4.25,11.52-6.56s7.42-4.73,11-7.22c1.79-1.26,3.53-2.56,5.3-3.84l5.15-4,5-4.1,4.86-4.22,4.71-4.35c1.54-1.47,3-3,4.57-4.45.77-.74,1.5-1.5,2.22-2.27l2.18-2.29c.73-.77,1.48-1.53,2.17-2.31l2.09-2.35c2.86-3.1,5.46-6.36,8.14-9.57,2.5-3.31,5.14-6.55,7.48-9.94s4.65-6.8,6.95-10.23c1.14-1.71,2.14-3.49,3.22-5.23s2.16-3.49,3.12-5.28l3-5.35c1-1.76,1.85-3.6,2.8-5.41s1.88-3.61,2.74-5.44l2.53-5.52,1.29-2.76c.41-.92.78-1.86,1.17-2.79l2.35-5.6c.83-1.85,1.47-3.76,2.19-5.64l2.12-5.67c1.36-3.8,2.55-7.63,3.92-11.45q-.4,3-.87,5.91c-.32,2-.58,4-.94,5.92l-1.26,5.88c-.43,2-.79,3.94-1.33,5.88l-1.55,5.85c-.27,1-.52,1.95-.81,2.92l-.93,2.9-1.88,5.8c-.66,1.92-1.42,3.82-2.13,5.74-1.38,3.85-3.09,7.62-4.73,11.4-.79,1.91-1.78,3.75-2.69,5.62s-1.81,3.75-2.83,5.58c-2,3.68-4,7.37-6.3,10.95s-4.6,7.16-7,10.71c-2.56,3.46-5.06,7-7.85,10.33l-2.05,2.55c-.7.84-1.44,1.65-2.15,2.49l-2.17,2.48c-.72.83-1.45,1.66-2.22,2.45-1.53,1.61-3,3.24-4.57,4.84l-4.78,4.71-5,4.59-5.15,4.47q-2.64,2.17-5.34,4.32c-1.84,1.39-3.66,2.8-5.53,4.17-3.77,2.7-7.6,5.38-11.61,7.88s-8.12,4.91-12.4,7.16c-2.14,1.13-4.32,2.21-6.54,3.27-1.13.51-2.24,1-3.41,1.54-.57.25-1.15.51-1.76.75l-.9.37-1,.4-2.94,1.13L197,240.54l-1-.41-.91-.37c-.61-.24-1.19-.5-1.77-.75-1.17-.49-2.28-1-3.42-1.55q-3.33-1.59-6.55-3.28c-4.29-2.25-8.42-4.66-12.43-7.18s-7.85-5.19-11.63-7.91c-1.88-1.37-3.7-2.79-5.55-4.18s-3.59-2.89-5.35-4.34l-5.15-4.48-5-4.6-4.77-4.73c-1.56-1.6-3.05-3.24-4.58-4.85-.77-.8-1.51-1.63-2.22-2.47L124.46,187c-.72-.83-1.47-1.65-2.16-2.5l-2-2.55c-2.78-3.37-5.29-6.89-7.86-10.36-2.4-3.55-4.86-7.09-7-10.74-1.09-1.81-2.28-3.6-3.26-5.45l-3.05-5.53c-1-1.84-1.87-3.73-2.82-5.59s-1.9-3.73-2.68-5.64c-1.65-3.8-3.35-7.57-4.73-11.43-.71-1.93-1.48-3.83-2.13-5.77l-1.89-5.81-.92-2.91c-.3-1-.54-2-.81-2.93l-1.55-5.86c-.55-1.94-.9-3.94-1.34-5.91L79,92.07c-.36-2-.62-3.95-.94-5.93S77.44,82.19,77.17,80.21Z" transform="translate(0 -0.88)"/><path class="cls-1" d="M.64,313.79a19.35,19.35,0,0,1,4.8-.56c2.6,0,4.82.56,6.34,2a6.56,6.56,0,0,1,1.88,4.93,6.63,6.63,0,0,1-4.41,6.38v.11c3.34.89,5.32,3.57,5.32,7.34a8.29,8.29,0,0,1-2,5.7c-1.63,1.85-4.3,2.61-7.62,2.61A25.45,25.45,0,0,1,.64,342V313.79ZM3.9,325.58H5.42a4.94,4.94,0,0,0,5-5.07c0-2.65-1.22-4.7-4.74-4.7a6,6,0,0,0-1.75.2Zm0,13.95a7.86,7.86,0,0,0,1.67.15c3.41,0,5.62-2,5.62-5.72,0-3.95-2.75-5.84-5.85-5.87H3.9Z" transform="translate(0 -0.88)"/><path class="cls-1" d="M31.09,331.79c0,8-3.71,10.68-6.87,10.68-3.69,0-6.71-3.37-6.71-10.63,0-7.53,3.37-10.69,6.93-10.69S31.09,324.6,31.09,331.79Zm-10.28,0c0,3.42.61,8.06,3.56,8.06s3.41-4.83,3.41-8.06-.57-8-3.49-8S20.81,328.64,20.81,331.79Z" transform="translate(0 -0.88)"/><path class="cls-1" d="M47.36,312.59v24.6c0,1.38.12,3.73.17,4.94H44.72l-.22-2.6h-.15A4.76,4.76,0,0,1,40,342.46c-3.49,0-6-3.78-6-10.58,0-7.31,3.07-10.74,6.23-10.74A4,4,0,0,1,44,323.58h.08v-11ZM44.1,329.33A10.39,10.39,0,0,0,44,328c-.18-2.16-1.46-4-3-4-2.73,0-3.67,3.81-3.67,7.92,0,4.37,1.13,7.84,3.48,7.84,1,0,2.43-.54,3.18-3.52a5.73,5.73,0,0,0,.12-1.37Z" transform="translate(0 -0.88)"/><path class="cls-1" d="M53.71,321.49l2.73,11.85c.38,1.61.59,3,.86,4.26h.09c.22-1.17.57-2.74.87-4.23l2.46-11.88H64L60.6,334.74c-1.29,5.19-2.71,10.19-5.12,13.33a10.6,10.6,0,0,1-3.72,3.12l-1.22-2.79a10.09,10.09,0,0,0,2.93-2.59,13.19,13.19,0,0,0,1.86-3.48,3.28,3.28,0,0,0,.23-1,2.22,2.22,0,0,0-.11-.76l-5.2-19Z" transform="translate(0 -0.88)"/><path class="cls-1" d="M73.75,313.79a19.41,19.41,0,0,1,4.8-.56c2.6,0,4.83.56,6.34,2a6.56,6.56,0,0,1,1.88,4.93,6.64,6.64,0,0,1-4.4,6.38v.11c3.33.89,5.31,3.57,5.31,7.34a8.29,8.29,0,0,1-2,5.7c-1.63,1.85-4.3,2.61-7.62,2.61a25.45,25.45,0,0,1-4.27-.28V313.79ZM77,325.58h1.51a4.93,4.93,0,0,0,5-5.07c0-2.65-1.22-4.7-4.73-4.7A5.89,5.89,0,0,0,77,316Zm0,13.95a7.76,7.76,0,0,0,1.66.15c3.41,0,5.62-2,5.62-5.72a5.53,5.53,0,0,0-5.84-5.87H77Z" transform="translate(0 -0.88)"/><path class="cls-1" d="M103.6,336.51c0,2.28.12,4.08.17,5.62H100.9l-.22-2.16h-.08a5.43,5.43,0,0,1-4.43,2.5c-3.6,0-5-2.81-5-7.94v-13h3.27v12.57c0,3.23.53,5.65,2.78,5.65a3.2,3.2,0,0,0,3-2.76,8.09,8.09,0,0,0,.18-1.84V321.49h3.27v15Z" transform="translate(0 -0.88)"/><path class="cls-1" d="M111.77,316.14a2,2,0,1,1-3.9,0A2,2,0,0,1,109.8,314,1.94,1.94,0,0,1,111.77,316.14Zm-3.56,26V321.49h3.27v20.64Z" transform="translate(0 -0.88)"/><path class="cls-1" d="M116.06,312.59h3.27v29.54h-3.27Z" transform="translate(0 -0.88)"/><path class="cls-1" d="M136.65,312.59v24.6c0,1.38.12,3.73.17,4.94H134l-.22-2.6h-.15a4.76,4.76,0,0,1-4.32,2.93c-3.49,0-6-3.78-6-10.58,0-7.31,3.07-10.74,6.23-10.74a4,4,0,0,1,3.77,2.44h.08v-11Zm-3.27,16.74a10.39,10.39,0,0,0-.06-1.36c-.18-2.16-1.46-4-3-4-2.72,0-3.67,3.81-3.67,7.92,0,4.37,1.13,7.84,3.49,7.84,1,0,2.42-.54,3.17-3.52a5.73,5.73,0,0,0,.12-1.37v-5.49Z" transform="translate(0 -0.88)"/><path class="cls-1" d="M144.8,316.14a2,2,0,1,1-3.89,0,2,2,0,1,1,3.89,0Zm-3.56,26V321.49h3.27v20.64Z" transform="translate(0 -0.88)"/><path class="cls-1" d="M149.09,326.82c0-2.43-.12-3.67-.17-5.32h2.87L152,324H152a5.2,5.2,0,0,1,4.72-2.82c2.86,0,5,2.1,5,7.11v13.87h-3.27v-13.3c0-2.46-.47-4.9-2.87-4.9-1.38,0-2.68,1.14-3.1,3.35a9,9,0,0,0-.16,1.85v13h-3.27V326.82Z" transform="translate(0 -0.88)"/><path class="cls-1" d="M179,321.49c-.07,1.41-.19,3.25-.19,6.43v11.54c0,5.44-.69,7.5-2,9a7.18,7.18,0,0,1-5.5,2.2,10.14,10.14,0,0,1-4.55-1l.77-2.59a8.62,8.62,0,0,0,3.84.9c2.6,0,4.22-1.63,4.22-6.31v-2.08h-.09a4.15,4.15,0,0,1-3.94,2.5c-3.65,0-6.07-4.11-6.07-10.18,0-7.62,3.45-10.74,6.51-10.74a4.2,4.2,0,0,1,3.85,2.66h.08l.16-2.31H179Zm-3.45,7.11a6,6,0,0,0-.17-1.51c-.36-1.4-1.11-3.14-3-3.14-2.37,0-3.66,3.21-3.66,7.78,0,5.28,1.66,7.67,3.64,7.67,1,0,2.29-.46,3-2.95a6.92,6.92,0,0,0,.21-1.87v-6Z" transform="translate(0 -0.88)"/><path class="cls-1" d="M190.39,313.37h11v2.85h-7.68V326.3h7.18v2.78h-7.18v13.05h-3.27Z" transform="translate(0 -0.88)"/><path class="cls-1" d="M206.12,332.1c0,6.33,2.52,7.66,4.88,7.66a7.39,7.39,0,0,0,3.42-.77l.54,2.39a9.9,9.9,0,0,1-4.56,1c-5,0-7.51-4.05-7.51-10.36,0-6.7,2.85-10.88,7-10.88s5.91,4.44,5.91,9.1c0,.8,0,1.36-.07,1.85Zm6.49-2.43c.06-4.14-1.5-6-3.06-6-2.17,0-3.25,3.13-3.4,6Z" transform="translate(0 -0.88)"/><path class="cls-1" d="M231.73,312.59v24.6c0,1.38.12,3.73.17,4.94h-2.81l-.22-2.6h-.14a4.76,4.76,0,0,1-4.32,2.93c-3.49,0-6-3.78-6-10.58,0-7.31,3.06-10.74,6.23-10.74a4,4,0,0,1,3.77,2.44h.08v-11Zm-3.25,16.74a10.39,10.39,0,0,0-.06-1.36c-.19-2.16-1.46-4-3.06-4-2.73,0-3.66,3.81-3.66,7.92,0,4.37,1.13,7.84,3.48,7.84,1,0,2.42-.54,3.17-3.52a5.69,5.69,0,0,0,.13-1.37v-5.49Z" transform="translate(0 -0.88)"/><path class="cls-1" d="M238.64,332.1c0,6.33,2.52,7.66,4.88,7.66a7.42,7.42,0,0,0,3.42-.77l.54,2.39a9.9,9.9,0,0,1-4.56,1c-4.95,0-7.51-4.05-7.51-10.36,0-6.7,2.85-10.88,7-10.88s5.9,4.44,5.9,9.1c0,.8,0,1.36-.06,1.85Zm6.5-2.43c.06-4.14-1.51-6-3.07-6-2.17,0-3.24,3.13-3.39,6Z" transform="translate(0 -0.88)"/><path class="cls-1" d="M251.79,326.82c0-1.74-.12-3.78-.17-5.32h2.93l.16,3.22h.11a5,5,0,0,1,4.33-3.57,6.43,6.43,0,0,1,.69,0v3.36a4.58,4.58,0,0,0-.68,0c-2.08,0-3.64,1.92-4,4.3a13.21,13.21,0,0,0-.12,1.88v11.43h-3.27Z" transform="translate(0 -0.88)"/><path class="cls-1" d="M270,342.13l-.22-2.19h-.12a4.63,4.63,0,0,1-4.13,2.52c-2.76,0-4.9-2.32-4.9-5.9,0-5.16,4.14-7.44,8.82-7.48v-.66c0-2.79-.71-4.7-3.32-4.7a6.05,6.05,0,0,0-3.41,1.07l-.71-2.31a9.08,9.08,0,0,1,4.82-1.35c4.13,0,5.91,2.7,5.91,7.36v8.95a36.39,36.39,0,0,0,.21,4.67H270Zm-.49-10.69c-1.69,0-5.68.34-5.68,4.82,0,2.68,1.37,3.64,2.55,3.64,1.43,0,2.65-1.08,3-3.09a5.42,5.42,0,0,0,.1-1.19v-4.18Z" transform="translate(0 -0.88)"/><path class="cls-1" d="M281,316v5.5h4V324h-4v12.27c0,2.7,1,3.4,2.15,3.4a6.36,6.36,0,0,0,1.33-.12l.15,2.54a7.29,7.29,0,0,1-2.44.32,4.11,4.11,0,0,1-3.23-1.24c-.83-.94-1.23-2.32-1.23-5.18V324H275.2V321.5h2.52V317Z" transform="translate(0 -0.88)"/><path class="cls-1" d="M291.4,316.14a2,2,0,1,1-3.89,0,2,2,0,1,1,3.89,0Zm-3.56,26V321.49h3.28v20.64Z" transform="translate(0 -0.88)"/><path class="cls-1" d="M308.37,331.79c0,8-3.71,10.68-6.86,10.68-3.71,0-6.72-3.37-6.72-10.63,0-7.53,3.38-10.69,6.94-10.69S308.37,324.6,308.37,331.79Zm-10.28,0c0,3.42.61,8.06,3.57,8.06s3.4-4.83,3.4-8.06-.57-8-3.49-8S298.09,328.64,298.09,331.79Z" transform="translate(0 -0.88)"/><path class="cls-1" d="M312,326.82c0-2.43-.12-3.67-.17-5.32h2.87l.16,2.48H315a5.21,5.21,0,0,1,4.73-2.82c2.86,0,5,2.1,5,7.11v13.87h-3.27v-13.3c0-2.46-.47-4.9-2.87-4.9-1.38,0-2.69,1.14-3.1,3.35a9,9,0,0,0-.16,1.85v13H312V326.82Z" transform="translate(0 -0.88)"/><path class="cls-1" d="M331.46,313l-.58,10H329l-.58-10Z" transform="translate(0 -0.88)"/><path class="cls-1" d="M335.16,338.71a6.47,6.47,0,0,0,3.34,1.08,2.82,2.82,0,0,0,3.05-3c0-1.55-.58-2.65-2.64-4-2.7-1.74-4.18-3.51-4.18-5.88a5.56,5.56,0,0,1,5.71-5.71,6.81,6.81,0,0,1,3.68,1.06l-.88,2.48a4.68,4.68,0,0,0-2.75-.93,2.53,2.53,0,0,0-2.66,2.63c0,1.38.53,2.16,2.56,3.56,2.39,1.54,4.28,3.43,4.28,6.3,0,4.15-2.83,6.14-6.23,6.14a7.09,7.09,0,0,1-4.08-1.2Z" transform="translate(0 -0.88)"/><path class="cls-1" d="M367.58,341.62a9.41,9.41,0,0,1-4.13.76c-5.6,0-9.63-4.52-9.63-14.29,0-11.34,5.62-15,10.17-15a7.36,7.36,0,0,1,3.58.7l-.73,2.81A5.81,5.81,0,0,0,364,316c-3.06,0-6.69,3-6.69,11.76s3.24,11.7,6.78,11.7a7.45,7.45,0,0,0,3-.61Z" transform="translate(0 -0.88)"/><path class="cls-1" d="M382.08,336.51c0,2.28.12,4.08.17,5.62h-2.87l-.22-2.16h-.08a5.43,5.43,0,0,1-4.43,2.5c-3.6,0-5-2.81-5-7.94v-13h3.27v12.57c0,3.23.53,5.65,2.78,5.65a3.2,3.2,0,0,0,3-2.76,8.09,8.09,0,0,0,.18-1.84V321.49h3.27v15Z" transform="translate(0 -0.88)"/><path class="cls-1" d="M386.66,327.92c0-3.17-.12-5-.17-6.42h2.93l.16,2.61h.08a4.76,4.76,0,0,1,4.37-3c3.59,0,6,3.8,6,10.6,0,7.67-3.16,10.72-6.39,10.72a3.9,3.9,0,0,1-3.6-2.38h-.09v10.24h-3.25V327.92Zm3.26,6.63a7.5,7.5,0,0,0,.16,1.7c.64,2.95,2.11,3.47,3,3.47,2.73,0,3.6-3.74,3.6-7.89s-1-7.87-3.63-7.87c-1.49,0-2.82,1.86-3,3.74a9,9,0,0,0-.12,1.58Z" transform="translate(0 -0.88)"/><path class="cls-1" d="M12.51,293a8.9,8.9,0,0,1-3.58-.67,5.77,5.77,0,0,1-2.52-2.11,2.32,2.32,0,0,1-.92.9c-.35.19-.69.38-1,.59a3,3,0,0,0-.85.82,2.87,2.87,0,0,0-.35,1.6v6.38H0v-7.19a5.07,5.07,0,0,1,.35-2,4.16,4.16,0,0,1,.9-1.33,5.66,5.66,0,0,1,1.2-.89c.43-.23.83-.47,1.21-.7a4.94,4.94,0,0,0,1-.8,2,2,0,0,0,.48-1.2l-.06-.87c0-.3,0-.62,0-1q0-4.5,2-6.51a7.34,7.34,0,0,1,5.48-2A7.38,7.38,0,0,1,18,278q2,2,2,6.51a12.34,12.34,0,0,1-.53,3.83A6.76,6.76,0,0,1,18,291a5.74,5.74,0,0,1-2.35,1.51A9.48,9.48,0,0,1,12.51,293Zm0-13.93a3.6,3.6,0,0,0-3.19,1.45,7.08,7.08,0,0,0-1,4,6.79,6.79,0,0,0,1,4.11,3.78,3.78,0,0,0,3.19,1.28,3.78,3.78,0,0,0,3.19-1.28,6.78,6.78,0,0,0,1-4.11,7,7,0,0,0-1-4A3.62,3.62,0,0,0,12.51,279Z" transform="translate(0 -0.88)"/><path class="cls-1" d="M24.87,266.48a.34.34,0,0,1,.39-.39h2.5c.26,0,.38.13.38.39v21.08a2.22,2.22,0,0,0,.46,1.62,2,2,0,0,0,1.43.45h1.72a1.39,1.39,0,0,1,1.57,1.57c0,.66-.13,1.06-.37,1.23a2.19,2.19,0,0,1-1.2.25h-2.3a4.48,4.48,0,0,1-3.52-1.19,5.51,5.51,0,0,1-1.05-3.74V266.48Z" transform="translate(0 -0.88)"/><path class="cls-1" d="M31.79,292.68a1.29,1.29,0,0,1-1.06-.34,1.83,1.83,0,0,1-.27-1.15,2.11,2.11,0,0,1,.25-1.27,1.47,1.47,0,0,1,1.08-.29h4.29a1.82,1.82,0,0,1,1.17.31,1.39,1.39,0,0,1,.39,1.13,1.68,1.68,0,0,1-.37,1.29,1.84,1.84,0,0,1-1.19.31H31.79Z" transform="translate(0 -0.88)"/><path class="cls-1" d="M36.13,292.68a1.29,1.29,0,0,1-1.06-.34,1.83,1.83,0,0,1-.27-1.15,2.11,2.11,0,0,1,.25-1.27,1.47,1.47,0,0,1,1.08-.29h4.3a1.86,1.86,0,0,1,1.17.31,1.39,1.39,0,0,1,.38,1.13,1.64,1.64,0,0,1-.37,1.29,1.84,1.84,0,0,1-1.19.31H36.13Z" transform="translate(0 -0.88)"/><path class="cls-1" d="M52.36,292.68a4.6,4.6,0,0,1-2.19-.5,3.47,3.47,0,0,1-1.45-1.53c-.65,1.36-2,2-4.06,2H40.43a2,2,0,0,1-1.17-.28,1.26,1.26,0,0,1-.38-1.09,1.81,1.81,0,0,1,.37-1.33,1.66,1.66,0,0,1,1.19-.36h3.64a2,2,0,0,0,1.43-.45,2.28,2.28,0,0,0,.44-1.62v-7.12a.34.34,0,0,1,.39-.39h2.5a.34.34,0,0,1,.39.39V287a2.27,2.27,0,0,0,.94,2,4.16,4.16,0,0,0,2.5.67h1a1.92,1.92,0,0,0,1.43-.46,2.23,2.23,0,0,0,.45-1.62v-7.12a.34.34,0,0,1,.39-.39h2.5a.34.34,0,0,1,.39.39v6.69a2.1,2.1,0,0,0,1,1.88,4.57,4.57,0,0,0,2.54.62h.9a1.94,1.94,0,0,0,1.43-.46,2.28,2.28,0,0,0,.44-1.62V277.06a.34.34,0,0,1,.39-.39H68a.34.34,0,0,1,.39.39V287a2.26,2.26,0,0,0,1,2,4.31,4.31,0,0,0,2.55.67h.43a1.78,1.78,0,0,1,1.17.33,1.4,1.4,0,0,1,.39,1.11,1.69,1.69,0,0,1-.37,1.31,2,2,0,0,1-1.2.3h-.82a4.51,4.51,0,0,1-2.19-.51,3.5,3.5,0,0,1-1.45-1.52c-.65,1.35-2,2-4.06,2H61.9a4.47,4.47,0,0,1-2.18-.5,3.44,3.44,0,0,1-1.45-1.52q-1,2-4.06,2H52.36Z" transform="translate(0 -0.88)"/><path class="cls-1" d="M72.37,292.68a1.28,1.28,0,0,1-1.05-.34,1.76,1.76,0,0,1-.28-1.15,2.19,2.19,0,0,1,.25-1.27,1.47,1.47,0,0,1,1.08-.29h4.3a1.84,1.84,0,0,1,1.17.31,1.39,1.39,0,0,1,.39,1.13,1.68,1.68,0,0,1-.37,1.29,1.87,1.87,0,0,1-1.2.31H72.37Z" transform="translate(0 -0.88)"/><path class="cls-1" d="M85.82,279a5.53,5.53,0,0,0-2.44.55,6.46,6.46,0,0,0-2,1.49.36.36,0,0,1-.55,0l-1.72-1.4c-.23-.19-.27-.36-.11-.55a8.92,8.92,0,0,1,2.71-2.26,8.09,8.09,0,0,1,4-.9,10,10,0,0,1,4.43.84,7.17,7.17,0,0,1,2.73,2.21,8.11,8.11,0,0,1,1.41,3.16,17.59,17.59,0,0,1,.39,3.72,13,13,0,0,1-.33,3.25,5,5,0,0,1-1,2.07,3.78,3.78,0,0,1-1.77,1.11,8.77,8.77,0,0,1-2.54.34H76.69a1.39,1.39,0,0,1-1.57-1.57c0-.65.13-1.06.37-1.23a2.28,2.28,0,0,1,1.2-.25h11.1a7.57,7.57,0,0,0,1.76-.17,1.9,1.9,0,0,0,1-.61,2.47,2.47,0,0,0,.47-1.15,11.14,11.14,0,0,0,.12-1.78,13.34,13.34,0,0,0-.27-2.79A6.66,6.66,0,0,0,90,281a4,4,0,0,0-1.63-1.4A5.51,5.51,0,0,0,85.82,279Zm-.7,20.84a.34.34,0,0,1-.39-.39v-2.85a.35.35,0,0,1,.39-.4h2.66c.26,0,.38.13.38.4v2.85a.34.34,0,0,1-.38.39Z" transform="translate(0 -0.88)"/><path class="cls-1" d="M109.71,289.63h4.58a2,2,0,0,0,1.43-.45,2.28,2.28,0,0,0,.44-1.62V266.48a.34.34,0,0,1,.39-.39h2.5c.26,0,.38.13.38.39v21.27a5.59,5.59,0,0,1-1.05,3.74,4.46,4.46,0,0,1-3.51,1.19H98.72a.34.34,0,0,1-.39-.39V290a.34.34,0,0,1,.39-.39h7.71V272c0-.26.12-.39.38-.39h2.5a.34.34,0,0,1,.39.39v17.63Zm-4.14-22.21a3.54,3.54,0,0,1-.51-1.05,4.58,4.58,0,0,1-.19-1.37,5.18,5.18,0,0,1,.19-1.31,3.49,3.49,0,0,1,.67-1.26,3.72,3.72,0,0,1,1.23-.94,4.9,4.9,0,0,1,3.71,0,3,3,0,0,1,1.27,1c.07.19.07.32,0,.4l-.83.66c-.18.16-.32.19-.43.08a3.1,3.1,0,0,0-.82-.65,2.14,2.14,0,0,0-1-.25,2,2,0,0,0-1.63.66,2.48,2.48,0,0,0-.53,1.57,2.61,2.61,0,0,0,.45,1.5,4,4,0,0,0,.88,1h4c.16,0,.24.1.24.28v1.1q0,.27-.24.27h-7.93q-.24,0-.24-.27v-1.1c0-.18.08-.28.24-.28Z" transform="translate(0 -0.88)"/><path class="cls-1" d="M128.21,292.29a.34.34,0,0,1-.39.39h-2.5c-.26,0-.38-.13-.38-.39v-25.8c0-.26.12-.39.38-.39h2.5a.34.34,0,0,1,.39.39Z" transform="translate(0 -0.88)"/><path class="cls-1" d="M144.63,283.88c.1-.18.29-.19.55,0l2.15,1.17a.32.32,0,0,1,.12.5,16.13,16.13,0,0,0-1.35,2.7,9.14,9.14,0,0,0-.64,3.37,6.08,6.08,0,0,0,.56,2.79,4.91,4.91,0,0,0,1.46,1.76,5.86,5.86,0,0,0,2,.92,8.29,8.29,0,0,0,2.07.27,6.34,6.34,0,0,0,4.1-1.28,5.06,5.06,0,0,0,1.61-4.18V266.48a.34.34,0,0,1,.39-.39h2.49a.35.35,0,0,1,.4.39V291.9a8.31,8.31,0,0,1-2.36,6.29c-1.58,1.52-3.86,2.27-6.83,2.27a12,12,0,0,1-3.81-.56,8,8,0,0,1-2.89-1.66,7.47,7.47,0,0,1-1.86-2.67,9.3,9.3,0,0,1-.67-3.66,13,13,0,0,1,.77-4.44A14.65,14.65,0,0,1,144.63,283.88Z" transform="translate(0 -0.88)"/><path class="cls-1" d="M166,266.48c0-.26.12-.39.38-.39h2.51a.34.34,0,0,1,.39.39v21.08a2.27,2.27,0,0,0,.45,1.62,2,2,0,0,0,1.43.45h1.73a1.39,1.39,0,0,1,1.56,1.57c0,.66-.12,1.06-.37,1.23a2.15,2.15,0,0,1-1.19.25h-2.32a4.46,4.46,0,0,1-3.51-1.19,5.51,5.51,0,0,1-1-3.74V266.48Z" transform="translate(0 -0.88)"/><path class="cls-1" d="M172.9,292.68a1.28,1.28,0,0,1-1.05-.34,1.76,1.76,0,0,1-.28-1.15,2.19,2.19,0,0,1,.25-1.27,1.47,1.47,0,0,1,1.08-.29h4.3a1.84,1.84,0,0,1,1.17.31,1.39,1.39,0,0,1,.39,1.13,1.68,1.68,0,0,1-.37,1.29,1.87,1.87,0,0,1-1.2.31H172.9Z" transform="translate(0 -0.88)"/><path class="cls-1" d="M177.23,292.68a1.28,1.28,0,0,1-1-.34,1.82,1.82,0,0,1-.28-1.15,2.09,2.09,0,0,1,.26-1.27,1.46,1.46,0,0,1,1.07-.29h4.3a1.84,1.84,0,0,1,1.17.31,1.39,1.39,0,0,1,.4,1.13,1.68,1.68,0,0,1-.37,1.29,1.86,1.86,0,0,1-1.2.31h-4.3Z" transform="translate(0 -0.88)"/><path class="cls-1" d="M193.35,293a9.27,9.27,0,0,1-3.25-.53,5.73,5.73,0,0,1-2.38-1.67,3.5,3.5,0,0,1-2.12,1.58,9.61,9.61,0,0,1-2.38.34h-1.68a1.38,1.38,0,0,1-1.56-1.56c0-.66.12-1.06.37-1.23a2.14,2.14,0,0,1,1.19-.26h2a2.16,2.16,0,0,0,.86-.17,2,2,0,0,0,.78-.59,3.2,3.2,0,0,0,.57-1.09,5.9,5.9,0,0,0,.22-1.7,6.78,6.78,0,0,1,0-.77v-.8q0-4.49,2-6.51a8.46,8.46,0,0,1,10.95,0q2,2,2,6.51c0,.29,0,.57,0,.86s0,.56-.06.82a3.84,3.84,0,0,0,.8,2.72,2.32,2.32,0,0,0,1.62.72h1.14a1.78,1.78,0,0,1,1.17.33,1.4,1.4,0,0,1,.39,1.11c0,.69-.12,1.12-.37,1.32a1.94,1.94,0,0,1-1.19.29h-.86c-.36,0-.76,0-1.17-.06a6,6,0,0,1-1.23-.25,4.71,4.71,0,0,1-1.15-.56,3.47,3.47,0,0,1-.94-1,5.56,5.56,0,0,1-2.39,1.64A9.65,9.65,0,0,1,193.35,293Zm0-13.93a3.57,3.57,0,0,0-3.19,1.45,7,7,0,0,0-1,4,6.71,6.71,0,0,0,1,4.11,4.6,4.6,0,0,0,6.37,0,6.71,6.71,0,0,0,1-4.11,7,7,0,0,0-1-4A3.59,3.59,0,0,0,193.35,279Z" transform="translate(0 -0.88)"/><path class="cls-1" d="M204.29,292.68a1.28,1.28,0,0,1-1-.34,1.76,1.76,0,0,1-.28-1.15,2.19,2.19,0,0,1,.25-1.27,1.47,1.47,0,0,1,1.08-.29h4.3a1.84,1.84,0,0,1,1.17.31,1.39,1.39,0,0,1,.39,1.13,1.68,1.68,0,0,1-.37,1.29,1.87,1.87,0,0,1-1.2.31h-4.29Z" transform="translate(0 -0.88)"/><path class="cls-1" d="M215.51,276.69H219a7.1,7.1,0,0,1,4.87,1.68q1.89,1.68,1.89,5.27V286a12.9,12.9,0,0,1-.34,3.25,4.71,4.71,0,0,1-1,2.05,3.7,3.7,0,0,1-1.76,1.08,9.08,9.08,0,0,1-2.55.31H208.6a1.39,1.39,0,0,1-1.57-1.56c0-.66.13-1.06.37-1.23a2.2,2.2,0,0,1,1.2-.26h10.28a7.06,7.06,0,0,0,1.76-.17,2,2,0,0,0,1-.59,2.38,2.38,0,0,0,.47-1.08,10.94,10.94,0,0,0,.11-1.68v-2.42c0-2.64-1.48-3.95-4.45-3.95h-6.3c-.26,0-.38-.13-.38-.39v-2.18a.58.58,0,0,1,.13-.37,1.69,1.69,0,0,1,.22-.26L220,266.46a.37.37,0,0,1,.51-.12l1.87,1.56a.4.4,0,0,1,.16.55Z" transform="translate(0 -0.88)"/><path class="cls-1" d="M254.22,286a13.44,13.44,0,0,1-.33,3.25,4.82,4.82,0,0,1-1,2.05,3.7,3.7,0,0,1-1.76,1.08,9,9,0,0,1-2.55.31h-8.68a.34.34,0,0,1-.39-.39V290a.34.34,0,0,1,.39-.39h7.47a7.06,7.06,0,0,0,1.76-.17,1.94,1.94,0,0,0,1-.59,2.28,2.28,0,0,0,.47-1.08,10.78,10.78,0,0,0,.12-1.68V283q0-3.94-4.46-4h-4.54a.33.33,0,0,1-.38-.38v-2.27c0-.27.12-.39.38-.39h5.75a7.09,7.09,0,0,1,4.87,1.68q1.89,1.68,1.89,5.28Z" transform="translate(0 -0.88)"/><path class="cls-1" d="M259.07,266.48a.34.34,0,0,1,.39-.39H262a.35.35,0,0,1,.4.39v21.08a2.27,2.27,0,0,0,.45,1.62,2,2,0,0,0,1.43.45H266a1.39,1.39,0,0,1,1.56,1.57c0,.66-.12,1.06-.37,1.23a2.15,2.15,0,0,1-1.19.25h-2.31a4.46,4.46,0,0,1-3.51-1.19,5.51,5.51,0,0,1-1.06-3.74V266.48Z" transform="translate(0 -0.88)"/><path class="cls-1" d="M266,292.68a1.28,1.28,0,0,1-1.05-.34,1.82,1.82,0,0,1-.28-1.15,2.09,2.09,0,0,1,.26-1.27,1.46,1.46,0,0,1,1.07-.29h4.3a1.84,1.84,0,0,1,1.17.31,1.39,1.39,0,0,1,.39,1.13,1.68,1.68,0,0,1-.37,1.29,1.86,1.86,0,0,1-1.2.31H266Z" transform="translate(0 -0.88)"/><path class="cls-1" d="M270.33,292.68a1.28,1.28,0,0,1-1.05-.34,1.83,1.83,0,0,1-.27-1.15,2.11,2.11,0,0,1,.25-1.27,1.46,1.46,0,0,1,1.07-.29h4.3a1.82,1.82,0,0,1,1.17.31,1.39,1.39,0,0,1,.39,1.13,1.68,1.68,0,0,1-.37,1.29,1.84,1.84,0,0,1-1.19.31h-4.3Z" transform="translate(0 -0.88)"/><path class="cls-1" d="M283.78,279a5.53,5.53,0,0,0-2.44.55,6.5,6.5,0,0,0-2,1.49.35.35,0,0,1-.54,0l-1.73-1.4c-.23-.19-.27-.36-.12-.55a9,9,0,0,1,2.72-2.26,8.12,8.12,0,0,1,4-.9,10,10,0,0,1,4.43.84,7.17,7.17,0,0,1,2.73,2.21,8.33,8.33,0,0,1,1.41,3.16,17.59,17.59,0,0,1,.39,3.72c0,.24,0,.46,0,.67s0,.42,0,.62a2.18,2.18,0,0,0,1,1.82,4.62,4.62,0,0,0,2.48.6h.43a1.76,1.76,0,0,1,1.17.33,1.4,1.4,0,0,1,.4,1.11,1.69,1.69,0,0,1-.37,1.31,1.92,1.92,0,0,1-1.2.3h-.82a5.11,5.11,0,0,1-2.39-.56,3.15,3.15,0,0,1-1.49-1.7,3.75,3.75,0,0,1-1.88,1.75,7.66,7.66,0,0,1-3,.51H274.63a1.38,1.38,0,0,1-1.56-1.57c0-.65.13-1.06.37-1.22a2.16,2.16,0,0,1,1.19-.26h11.11a7.57,7.57,0,0,0,1.76-.17,1.94,1.94,0,0,0,1-.61,2.58,2.58,0,0,0,.47-1.15,12.62,12.62,0,0,0,.11-1.78,13.34,13.34,0,0,0-.27-2.79,6.46,6.46,0,0,0-.89-2.19,3.87,3.87,0,0,0-1.62-1.4A5.47,5.47,0,0,0,283.78,279Z" transform="translate(0 -0.88)"/><path class="cls-1" d="M296.49,292.68a2,2,0,0,1-1.17-.28,1.25,1.25,0,0,1-.38-1.09,1.82,1.82,0,0,1,.37-1.33,1.66,1.66,0,0,1,1.19-.35h2.7a1.91,1.91,0,0,0,1.43-.46,2.27,2.27,0,0,0,.45-1.62V277.07c0-.27.12-.39.38-.39H304a.34.34,0,0,1,.39.39v10.67a5.53,5.53,0,0,1-1.06,3.74,4.49,4.49,0,0,1-3.52,1.19h-3.28Zm2.5-19.86a.35.35,0,0,1-.39-.4v-2.85a.35.35,0,0,1,.39-.4h2.66a.35.35,0,0,1,.39.4v2.85a.35.35,0,0,1-.39.4Zm4.77,0a.35.35,0,0,1-.39-.4v-2.85a.35.35,0,0,1,.39-.4h2.66a.35.35,0,0,1,.39.4v2.85a.35.35,0,0,1-.39.4Z" transform="translate(0 -0.88)"/><path class="cls-1" d="M313.3,292.29a.34.34,0,0,1-.39.39h-2.5a.35.35,0,0,1-.4-.39v-25.8a.35.35,0,0,1,.4-.39h2.5a.34.34,0,0,1,.39.39Z" transform="translate(0 -0.88)"/><path class="cls-1" d="M348.73,292.68a3.93,3.93,0,0,1-3.13-1.25v.47a8.31,8.31,0,0,1-2.36,6.29c-1.59,1.52-3.86,2.27-6.83,2.27a12,12,0,0,1-3.81-.56,8,8,0,0,1-2.89-1.66,7.59,7.59,0,0,1-1.86-2.67,9.3,9.3,0,0,1-.67-3.66,13,13,0,0,1,.77-4.44,14.49,14.49,0,0,1,1.78-3.57c.1-.19.29-.2.55,0l2.15,1.16a.33.33,0,0,1,.12.51,16.13,16.13,0,0,0-1.35,2.7,9.14,9.14,0,0,0-.64,3.37,6.11,6.11,0,0,0,.56,2.79,4.91,4.91,0,0,0,1.46,1.76,5.65,5.65,0,0,0,2,.91,7.87,7.87,0,0,0,2.07.28,6.34,6.34,0,0,0,4.1-1.29,5,5,0,0,0,1.6-4.18V280.46a.34.34,0,0,1,.39-.39h2.5c.26,0,.38.13.38.39v6.68a2.08,2.08,0,0,0,1,1.88,4.62,4.62,0,0,0,2.54.62h.9a2,2,0,0,0,1.43-.45,2.27,2.27,0,0,0,.45-1.62v-7.12c0-.26.12-.39.38-.39h2.5a.34.34,0,0,1,.39.39v6.69a2.07,2.07,0,0,0,1,1.87,4.57,4.57,0,0,0,2.54.62h.9a2,2,0,0,0,1.43-.45,2.28,2.28,0,0,0,.44-1.62V277.07c0-.26.13-.38.39-.38h2.5c.26,0,.39.12.39.38v10.68a5.58,5.58,0,0,1-1.06,3.74,4.46,4.46,0,0,1-3.51,1.19h-1.88a4.65,4.65,0,0,1-2.19-.5,3.4,3.4,0,0,1-1.44-1.53c-.66,1.36-2,2-4.07,2h-1.84Z" transform="translate(0 -0.88)"/><path class="cls-1" d="M369.29,262.49a3.3,3.3,0,0,1-.5-1.05,4.58,4.58,0,0,1-.2-1.37,4.8,4.8,0,0,1,.2-1.31,3.32,3.32,0,0,1,.66-1.26,3.83,3.83,0,0,1,1.23-.94,4.9,4.9,0,0,1,3.71,0,3,3,0,0,1,1.27,1c.08.19.08.31,0,.4l-.82.66c-.19.16-.33.19-.43.08a3.46,3.46,0,0,0-.82-.65,2.16,2.16,0,0,0-1.06-.25,1.94,1.94,0,0,0-1.62.66,2.43,2.43,0,0,0-.53,1.57,2.6,2.6,0,0,0,.44,1.5,4.2,4.2,0,0,0,.88,1h4c.16,0,.23.1.23.28v1.1c0,.18-.07.27-.23.27h-7.94c-.16,0-.23-.09-.23-.27v-1.1c0-.18.07-.28.23-.28Zm.74,4a.35.35,0,0,1,.4-.39h2.5a.34.34,0,0,1,.39.39v21.08a2.27,2.27,0,0,0,.45,1.62,2,2,0,0,0,1.43.45h1.72a1.39,1.39,0,0,1,1.57,1.57c0,.66-.13,1.06-.37,1.23a2.21,2.21,0,0,1-1.2.25h-2.3a4.48,4.48,0,0,1-3.52-1.19,5.51,5.51,0,0,1-1.06-3.74V266.48Z" transform="translate(0 -0.88)"/><path class="cls-1" d="M377,292.68a1.29,1.29,0,0,1-1.06-.34,1.83,1.83,0,0,1-.27-1.15,2.11,2.11,0,0,1,.25-1.27,1.47,1.47,0,0,1,1.08-.29h4.3a1.81,1.81,0,0,1,1.16.31,1.36,1.36,0,0,1,.39,1.13,1.64,1.64,0,0,1-.37,1.29,1.84,1.84,0,0,1-1.19.31H377Z" transform="translate(0 -0.88)"/><path class="cls-1" d="M388.18,276.69h3.48a7.09,7.09,0,0,1,4.87,1.68q1.91,1.68,1.9,5.27V286a12.9,12.9,0,0,1-.34,3.25,4.71,4.71,0,0,1-1,2.05,3.72,3.72,0,0,1-1.75,1.08,9.08,9.08,0,0,1-2.55.31h-11.5a1.38,1.38,0,0,1-1.56-1.56c0-.66.13-1.06.37-1.23a2.16,2.16,0,0,1,1.19-.26h10.28a7,7,0,0,0,1.76-.17,1.9,1.9,0,0,0,1-.59,2.19,2.19,0,0,0,.47-1.08,9.67,9.67,0,0,0,.12-1.68v-2.42c0-2.64-1.49-3.95-4.46-3.95h-6.29a.34.34,0,0,1-.39-.39v-2.18a.54.54,0,0,1,.14-.37,2.8,2.8,0,0,1,.21-.26l8.57-10.08a.36.36,0,0,1,.5-.12l1.88,1.56a.41.41,0,0,1,.16.55Z" transform="translate(0 -0.88)"/><path class="cls-1" d="M1.1,368.42A9.3,9.3,0,0,1,4.29,368,6.09,6.09,0,0,1,9,369.61,6.4,6.4,0,0,1,10.53,374a6.2,6.2,0,0,1-3.89,6.21v.06c1.82.46,2.81,2.25,3.36,5.69a30.09,30.09,0,0,0,1.27,5.72H9.76a35.1,35.1,0,0,1-1.3-6c-.59-3.44-1.79-4.88-4.56-4.88H2.61V391.7H1.1V368.42Zm1.51,11.26H3.94c2.91,0,5-2.07,5-5.37,0-3.15-1.29-5-4.73-5a6.82,6.82,0,0,0-1.62.14v10.27Z" transform="translate(0 -0.88)"/><path class="cls-1" d="M16.25,370.55c0,.81-.38,1.3-1.19,1.3-.63,0-1.09-.49-1.09-1.3a1.16,1.16,0,0,1,1.13-1.29C15.87,369.26,16.25,369.79,16.25,370.55Zm-1.89,21.16V374.87h1.51v16.84Z" transform="translate(0 -0.88)"/><path class="cls-1" d="M20.12,374.87l2.6,10.25c.38,1.5.56,2.73.84,3.89h.06c.21-1,.6-2.49.91-3.89l2.39-10.25h1.54l-2.31,9.44c-1.2,4.91-2.39,9.51-4.46,12.32a9.57,9.57,0,0,1-2.52,2.49l-.78-1.27a9.67,9.67,0,0,0,2.49-2.56,13,13,0,0,0,1.58-3.37,2.7,2.7,0,0,0,.18-.91,1.94,1.94,0,0,0-.07-.63l-4-15.5h1.54Z" transform="translate(0 -0.88)"/><path class="cls-1" d="M37,391.71l-.14-1.86h-.1A3.47,3.47,0,0,1,33.56,392c-2.07,0-3.72-1.75-3.72-4.63,0-4.07,3.06-6,6.88-6v-.63c0-2.87-.46-4.8-2.92-4.8a4.09,4.09,0,0,0-2.38.81L31,375.58a5.35,5.35,0,0,1,3.13-1c2.28,0,4.1,1.34,4.1,5.37v8a32.53,32.53,0,0,0,.14,3.78Zm-.25-9c-1.3,0-5.3.1-5.3,4.59,0,2.53,1.23,3.41,2.34,3.41,1.44,0,2.56-1.16,2.88-3.19a6,6,0,0,0,.07-1.08v-3.73Z" transform="translate(0 -0.88)"/><path class="cls-1" d="M51.19,367.43v20.84c0,.84.11,2.81.15,3.44H50l-.14-2.24h-.14A3.82,3.82,0,0,1,46.21,392c-2.39,0-4.7-2.52-4.7-8.63s2.46-8.78,4.88-8.78a3.44,3.44,0,0,1,3.23,2.18h.07v-9.33Zm-1.5,13.79c0-.39,0-.81,0-1.19-.15-2.22-1.51-4.11-3.06-4.11-2.63,0-3.51,3.61-3.51,7.37s.95,7.37,3.3,7.37c1,0,2.46-.53,3.23-3.75a6.24,6.24,0,0,0,.07-1.16v-4.53Z" transform="translate(0 -0.88)"/><path class="cls-1" d="M55.3,367.43h1.51v9.27h.06a4.77,4.77,0,0,1,1.41-1.51,3.65,3.65,0,0,1,2.21-.6c1.55,0,3.72,1.09,3.72,5.34v11.78H62.7V380.45c0-2.35-.56-4.56-2.66-4.56-1.55,0-2.7,1.19-3.16,3.36a7.61,7.61,0,0,0-.07,1.26V391.7h-1.5V367.43Z" transform="translate(0 -0.88)"/><path class="cls-1" d="M175.78,391.71v-.91l1.68-2.45c2.6-3.79,6.28-8.77,6.28-13.68,0-2.95-1.16-4.67-3.44-4.67a4.87,4.87,0,0,0-3.23,1.33l-.57-1.09a5.74,5.74,0,0,1,4.07-1.61c3.06,0,4.71,2.45,4.71,6,0,4.28-2.88,8.91-5.83,13.26l-1.61,2.38v.06h8v1.37h-10Z" transform="translate(0 -0.88)"/><path class="cls-1" d="M198.72,380.31c0,8.39-2.42,11.69-5.51,11.69-2.67,0-5.09-3.3-5.09-11.69s2.42-11.68,5.51-11.68C196.31,368.63,198.72,371.92,198.72,380.31Zm-9,0c0,5.61,1.12,10.35,3.78,10.35s3.72-4.74,3.72-10.35S196.05,370,193.43,370,189.68,374.69,189.68,380.31Z" transform="translate(0 -0.88)"/><path class="cls-1" d="M206.55,370.66h-.07L202.73,373l-.39-1.2,4.56-2.88H208v22.8h-1.47v-21Z" transform="translate(0 -0.88)"/><path class="cls-1" d="M214.58,390.59a5.69,5.69,0,0,0,1.44-.21,7.08,7.08,0,0,0,3.36-2.07,13.38,13.38,0,0,0,3-7.62h-.07a4.91,4.91,0,0,1-4,2.21c-2.77,0-4.74-2.63-4.74-6.73,0-4.32,2.17-7.55,5.12-7.55,3.72,0,5.26,4.28,5.26,9a18.68,18.68,0,0,1-2.56,10.28,8.78,8.78,0,0,1-5,3.82,7.29,7.29,0,0,1-1.71.24v-1.39Zm.49-14.56c0,4,1.58,5.55,3.65,5.55a4,4,0,0,0,3.47-2.56,1.74,1.74,0,0,0,.21-.84c0-5.9-1.68-8.22-3.82-8.22C217.07,370,215.07,371.4,215.07,376Z" transform="translate(0 -0.88)"/><path class="cls-1" d="M333.22,389.91a5,5,0,0,0,.53,2.44,4.44,4.44,0,0,0,1.35,1.52,5.32,5.32,0,0,0,1.78.77,8.53,8.53,0,0,0,1.83.22,7.9,7.9,0,0,0,2-.25,4.34,4.34,0,0,0,1.65-.82,4.17,4.17,0,0,0,1.1-1.46,5.32,5.32,0,0,0,.4-2.19V378.39a.27.27,0,0,1,.31-.31h1.11a.27.27,0,0,1,.31.31v1.17a20.07,20.07,0,0,1,3.57-1.52,13.18,13.18,0,0,1,4.05-.63,9.13,9.13,0,0,1,3.79.67,6,6,0,0,1,2.24,1.75,5.92,5.92,0,0,1,1.07,2.4,12.86,12.86,0,0,1,.27,2.58,11.89,11.89,0,0,1-.36,3.23,3.46,3.46,0,0,1-1.12,1.77,4,4,0,0,1-2,.73,26.72,26.72,0,0,1-2.91.14h-8.67a7.53,7.53,0,0,1-.56,2.4,5.33,5.33,0,0,1-1.34,1.92,6,6,0,0,1-2.16,1.26,8.94,8.94,0,0,1-3,.46,9.24,9.24,0,0,1-3-.47,6,6,0,0,1-2.23-1.34,5.78,5.78,0,0,1-1.38-2.09,7.63,7.63,0,0,1-.47-2.71,9.65,9.65,0,0,1,.66-3.63,13.32,13.32,0,0,1,1.42-2.71c.09-.13.23-.13.44,0l1,.63a.26.26,0,0,1,.1.41,15.58,15.58,0,0,0-1.2,2.32A7.52,7.52,0,0,0,333.22,389.91Zm20.16-10.74a11.46,11.46,0,0,0-2.09.2,15.57,15.57,0,0,0-2.06.54q-1,.33-1.92.72c-.61.26-1.16.52-1.67.78v7.49h9.45a10.29,10.29,0,0,0,1.7-.11,2.09,2.09,0,0,0,1.14-.53,2.54,2.54,0,0,0,.63-1.25,10.94,10.94,0,0,0,.18-2.24,9.79,9.79,0,0,0-.25-2.33,4.32,4.32,0,0,0-.87-1.77,4,4,0,0,0-1.65-1.11A7.44,7.44,0,0,0,353.38,379.17Zm-.6-4.29a.27.27,0,0,1-.31-.31v-1.9a.27.27,0,0,1,.31-.31h1.27a.27.27,0,0,1,.31.31v1.9a.27.27,0,0,1-.31.31Z" transform="translate(0 -0.88)"/><path class="cls-1" d="M364.85,369.56a.27.27,0,0,1,.31-.31h1.1a.27.27,0,0,1,.31.31v17.68a1.67,1.67,0,0,0,.42,1.31,1.75,1.75,0,0,0,1.19.36h1.57c.85,0,1.27.3,1.27.88,0,.43-.1.68-.31.76a2.52,2.52,0,0,1-1,.13h-1.22a4,4,0,0,1-2.84-.81,3.52,3.52,0,0,1-.85-2.63V369.56Z" transform="translate(0 -0.88)"/><path class="cls-1" d="M375.31,379.77v6.93a4.51,4.51,0,0,1-.85,3,3.65,3.65,0,0,1-2.84,1h-1.86a2.51,2.51,0,0,1-.94-.13c-.21-.08-.31-.29-.31-.63s.1-.69.3-.81a1.82,1.82,0,0,1,1-.19H372a1.63,1.63,0,0,0,1.16-.36,1.85,1.85,0,0,0,.36-1.31v-8.95a.27.27,0,0,1,.31-.31H375a.32.32,0,0,1,.16,0h2v1.76h-1.89Zm-4.6,16.07a.28.28,0,0,1-.32-.32v-1.89a.28.28,0,0,1,.32-.31h1.64a.27.27,0,0,1,.31.31v1.89a.28.28,0,0,1-.31.32Zm4,0a.28.28,0,0,1-.31-.32v-1.89a.27.27,0,0,1,.31-.31h1.64a.28.28,0,0,1,.32.31v1.89a.29.29,0,0,1-.32.32Z" transform="translate(0 -0.88)"/><path class="cls-1" d="M383.63,386.54a2,2,0,0,0,.83,1.78,3.81,3.81,0,0,0,2.22.58h.16a1.93,1.93,0,0,1,.94.18.64.64,0,0,1,.32.61c0,.48-.11.77-.31.85a2.52,2.52,0,0,1-1,.13,8.92,8.92,0,0,1-1.82-.16,2.48,2.48,0,0,1-1.39-.82v2.53a4.91,4.91,0,0,1-1.1,3.43,4.51,4.51,0,0,1-3.47,1.2h-.54a.28.28,0,0,1-.31-.32V395.4a.27.27,0,0,1,.31-.31h.73a2.39,2.39,0,0,0,2.65-2.69V378.29a.27.27,0,0,1,.31-.31h1.1a.28.28,0,0,1,.31.31v8.25Z" transform="translate(0 -0.88)"/><path class="cls-1" d="M390.77,369.56a.27.27,0,0,1,.31-.31h3.4l-.06,1.77H392.5v15.69a8.32,8.32,0,0,1-.16,1.76,2.88,2.88,0,0,1-.56,1.25,2.29,2.29,0,0,1-1.1.71,5.08,5.08,0,0,1-1.52.25h-2.33a2.09,2.09,0,0,1-.94-.16c-.21-.1-.31-.34-.31-.69s.1-.65.3-.76a2.25,2.25,0,0,1,1-.16h2.3a1.74,1.74,0,0,0,1.21-.38,1.63,1.63,0,0,0,.43-1.29V369.56Z" transform="translate(0 -0.88)"/><path class="cls-1" d="M399.31,390.35a.28.28,0,0,1-.31.31h-1.1a.27.27,0,0,1-.31-.31V369.56a.27.27,0,0,1,.31-.31H399a.27.27,0,0,1,.31.31Z" transform="translate(0 -0.88)"/><line class="cls-2" x1="70.81" y1="389.65" x2="170.27" y2="389.65"/><rect class="cls-1" x="70.66" y="388.7" width="0.29" height="1.89"/><line class="cls-2" x1="226.22" y1="389.65" x2="325.67" y2="389.65"/><rect class="cls-1" x="325.53" y="388.7" width="0.29" height="1.89"/></svg>